<?xml version="1.0" standalone="no"?>
<!DOCTYPE svg PUBLIC "-//W3C//DTD SVG 20010904//EN"
 "http://www.w3.org/TR/2001/REC-SVG-20010904/DTD/svg10.dtd">
<svg version="1.0" xmlns="http://www.w3.org/2000/svg"
 width="400.000000pt" height="400.000000pt" viewBox="0 0 400.000000 400.000000"
 preserveAspectRatio="xMidYMid meet">
<metadata>
Created by potrace 1.11, written by Peter Selinger 2001-2013
</metadata>
<g transform="translate(0.000000,400.000000) scale(0.100000,-0.100000)"
fill="#000000" stroke="none">
<path d="M0 3960 c0 -22 3 -40 8 -40 9 0 206 70 211 76 2 2 -46 4 -107 4
l-112 0 0 -40z"/>
<path d="M3371 3996 c2 -2 61 -42 130 -88 120 -80 235 -173 417 -336 l82 -74
0 251 0 251 -317 0 c-174 0 -314 -2 -312 -4z"/>
<path d="M1010 3850 c-6 -12 -60 -89 -119 -173 -216 -305 -382 -577 -509 -837
-80 -163 -114 -244 -106 -252 2 -3 52 42 111 99 103 98 108 102 111 76 3 -20
-3 -32 -19 -43 -44 -29 -364 -287 -421 -339 l-58 -53 0 -407 0 -406 85 -24 85
-23 -52 -49 c-41 -38 -60 -49 -85 -49 -18 0 -33 -4 -33 -10 0 -5 16 -10 36
-10 19 0 55 -5 79 -11 42 -11 46 -9 88 21 l45 32 146 -21 c80 -12 157 -26 171
-31 46 -18 29 -34 -45 -42 -23 -3 -26 -9 -43 -103 -25 -135 -21 -126 -57 -112
-24 9 -27 13 -13 18 35 12 -8 17 -175 18 -95 1 -185 6 -198 11 -31 12 -34 12
-34 0 0 -19 87 -32 207 -32 107 0 131 -3 181 -23 l57 -23 -3 -74 c-4 -101 -10
-123 -35 -138 -12 -7 -55 -53 -96 -103 l-74 -90 -21 24 c-12 13 -31 37 -44 53
-12 16 -25 26 -29 22 -3 -3 3 -16 14 -29 10 -12 36 -46 57 -76 46 -66 282
-342 438 -511 l114 -125 1519 -3 c1165 -1 1520 1 1526 10 6 9 11 9 23 -1 8 -7
25 -11 38 -9 23 4 23 4 -4 18 -16 7 -28 17 -28 22 0 5 36 26 80 46 l80 37 0
54 c0 47 -2 52 -17 46 -51 -19 -331 -87 -367 -88 -80 -2 -88 8 -227 263 -133
245 -177 355 -233 577 -31 121 -31 139 -7 268 10 55 22 123 26 150 l7 50 13
-41 c16 -54 56 -134 67 -134 5 0 7 10 3 23 -5 17 1 13 25 -15 33 -39 52 -43
43 -8 -6 24 -59 64 -73 55 -11 -7 -33 34 -48 88 -10 35 -8 41 16 68 l27 31 43
-95 c23 -53 42 -105 42 -116 0 -12 5 -21 11 -21 7 0 9 12 5 33 -5 30 -21 164
-30 249 -3 30 4 48 41 103 25 37 51 82 59 101 30 71 11 138 -57 201 -40 38
-43 44 -46 102 -3 48 0 63 12 67 20 8 19 30 -1 38 -14 5 -15 19 -10 99 8 106
46 285 57 265 4 -7 24 -115 45 -240 21 -125 40 -226 42 -223 4 4 23 215 38
423 4 50 9 92 11 92 3 0 64 -22 136 -49 73 -27 157 -57 188 -66 40 -13 61 -26
73 -45 21 -37 20 -40 -7 -40 -43 0 -179 -41 -208 -62 -32 -24 -40 -53 -11 -44
68 22 181 46 241 52 70 6 71 7 71 35 0 24 -4 29 -25 29 -18 0 -25 5 -25 20 0
17 5 19 25 14 l25 -6 -2 477 -3 478 -205 67 c-113 37 -213 71 -223 75 -16 7
-15 1 7 -46 106 -233 135 -305 192 -478 62 -187 156 -522 150 -529 -2 -1 -17
21 -34 50 -36 63 -155 225 -238 324 -121 144 -143 166 -159 160 -14 -5 -14 -8
1 -31 16 -24 16 -47 5 -298 -17 -363 -21 -417 -32 -417 -5 0 -9 13 -9 28 0 16
-12 91 -26 168 -30 153 -30 155 -19 202 6 26 4 32 -9 32 -9 0 -16 -8 -16 -17
0 -17 -8 -48 -99 -378 -27 -99 -57 -214 -67 -255 -13 -58 -19 -70 -25 -55 -4
11 -22 121 -39 245 -16 124 -34 252 -40 285 -5 33 -19 123 -31 200 -12 77 -33
205 -46 285 -29 165 -30 170 -19 228 5 27 4 42 -3 42 -6 0 -15 -19 -21 -42
-30 -119 -68 -228 -130 -373 -37 -88 -86 -205 -110 -260 -23 -55 -44 -102 -47
-105 -3 -3 -2 163 2 369 l8 374 43 81 c41 76 55 126 35 126 -4 0 -16 -21 -26
-47 -31 -87 -131 -243 -277 -435 -40 -53 -118 -155 -172 -227 -54 -73 -100
-130 -102 -129 -4 5 33 329 56 483 39 266 61 379 81 407 21 30 23 38 10 38
-11 0 -287 -281 -422 -430 -58 -63 -148 -163 -202 -222 l-97 -107 0 87 c0 154
29 391 87 720 3 19 1 32 -5 32 -11 0 -28 -71 -56 -223 -7 -43 -15 -79 -17 -80
-59 -36 -472 -451 -571 -575 -50 -62 -93 -111 -95 -109 -3 4 28 160 63 312 23
99 68 255 125 434 27 85 47 157 44 160 -12 11 -26 -22 -74 -169 -75 -234 -107
-355 -151 -575 -22 -110 -49 -217 -60 -237 -11 -21 -16 -38 -11 -38 5 0 24 17
41 38 27 32 29 33 19 9 -7 -15 -10 -30 -6 -33 3 -3 54 37 113 90 59 53 110 96
113 96 3 0 7 -98 7 -218 2 -318 31 -726 70 -987 69 -467 175 -1058 209 -1170
8 -26 -30 48 -110 219 -36 76 -65 145 -65 152 0 7 -5 16 -11 20 -7 4 -10 -33
-7 -124 2 -72 0 -128 -3 -124 -15 18 -145 359 -211 555 -51 152 -77 216 -87
215 -14 -3 -59 -125 -113 -305 -17 -57 -34 -101 -38 -98 -14 9 -50 211 -69
395 -38 349 -44 435 -44 678 1 133 -2 242 -6 242 -29 0 -244 -269 -330 -412
-25 -42 -31 -47 -25 -20 2 9 15 78 29 152 65 331 133 540 313 960 44 102 78
188 75 192 -8 15 -193 -131 -382 -301 l-82 -74 46 98 c99 214 308 567 485 820
173 247 190 272 190 284 0 18 -19 12 -30 -9z m1208 -680 c-1 -104 -3 -190 -4
-190 -1 0 -21 11 -45 25 -25 13 -83 33 -129 43 -47 10 -85 22 -84 27 0 8 255
284 262 285 2 0 2 -85 0 -190z m433 -430 c2 -47 0 -95 -4 -107 -7 -19 -5 -23
13 -23 19 0 20 -4 15 -67 -3 -38 -8 -80 -10 -95 -4 -28 18 -57 30 -38 4 6 46
10 103 10 111 -1 134 -9 209 -81 48 -46 48 -46 77 -178 32 -149 32 -151 -31
-321 -89 -244 -127 -334 -175 -413 -90 -152 -262 -326 -498 -505 -243 -184
-306 -206 -450 -154 -51 18 -63 25 -175 98 -73 48 -345 260 -388 302 -19 19
-35 98 -67 332 -41 301 -70 729 -70 1046 l0 192 84 68 c46 38 124 106 175 152
51 46 100 82 111 82 20 0 21 -6 19 -109 l-1 -110 -39 -6 c-51 -9 -50 -25 1
-25 33 0 40 -4 40 -19 0 -20 -25 -31 -76 -31 -16 0 -39 -7 -50 -15 -17 -14
-14 -15 38 -12 52 2 57 1 52 -15 -7 -24 13 -23 34 1 15 17 25 18 87 11 87 -10
180 -41 264 -86 66 -36 87 -38 57 -5 -10 11 -15 24 -12 29 3 5 -2 16 -12 25
-35 31 -199 123 -240 136 l-43 12 38 42 c21 23 62 69 91 101 l53 58 62 -11
c103 -20 257 -70 257 -85 0 -19 -12 -27 -24 -17 -6 4 -40 17 -76 28 -137 43
-145 40 -81 -30 21 -23 53 -58 70 -77 17 -19 39 -52 48 -72 9 -21 22 -38 29
-38 9 0 11 -11 9 -32 -3 -18 -7 -59 -10 -90 -4 -31 -13 -62 -21 -69 -15 -13
-20 -43 -5 -37 9 3 157 195 384 496 l92 123 7 -143 c3 -79 8 -181 9 -228z
m304 134 l12 -76 -46 7 c-25 4 -47 8 -48 9 -2 1 11 35 29 74 17 39 34 69 37
67 2 -3 10 -39 16 -81z m-2289 -61 c-4 -10 -32 -82 -64 -160 -62 -156 -67
-158 -78 -33 -7 73 0 125 16 115 6 -4 13 1 17 10 6 17 91 84 107 85 4 0 5 -8
2 -17z m1085 -29 c29 -9 63 -23 74 -31 18 -13 14 -14 -45 -7 -36 5 -77 8 -92
8 -27 -1 -28 4 -5 34 11 15 3 15 68 -4z m1198 -43 c23 -6 27 -16 48 -136 12
-71 21 -131 19 -133 -3 -2 -16 4 -30 13 -28 18 -116 22 -207 10 l-48 -7 44 99
c30 66 52 103 69 113 30 17 34 37 9 43 -10 3 2 5 27 5 25 0 56 -3 69 -7z m38
-286 c23 -14 43 -29 43 -33 0 -4 4 -24 9 -45 l9 -38 -42 45 c-53 58 -97 76
-188 77 -63 2 -67 3 -33 9 91 16 156 11 202 -15z m-2547 -80 c0 -3 -17 -51
-39 -108 -21 -57 -61 -175 -90 -262 -28 -88 -55 -166 -60 -174 -5 -9 -7 66 -4
192 3 113 3 217 -1 231 -3 13 -15 28 -27 31 -31 10 -15 19 101 59 107 36 120
40 120 31z m2874 -925 c6 -10 6 -12 -1 -5 -5 6 -20 37 -33 70 -31 80 -87 192
-100 200 -6 4 -10 -21 -10 -72 0 -97 -23 -295 -50 -433 -11 -58 -30 -192 -42
-297 -13 -106 -26 -193 -29 -193 -3 0 -12 48 -19 108 -18 153 -34 225 -49 230
-11 4 -12 -4 -5 -39 15 -74 7 -198 -21 -329 -15 -69 -33 -156 -41 -195 -25
-121 -34 -102 -34 71 0 87 -5 238 -10 334 -27 449 -27 428 -7 452 62 79 146
274 242 561 24 70 45 124 48 120 7 -11 21 -123 19 -150 -1 -14 4 -23 12 -23 9
0 20 25 30 73 9 39 31 126 49 192 l32 120 5 -390 c3 -214 9 -397 14 -405z m71
466 c31 -30 35 -40 35 -83 0 -42 -7 -61 -47 -124 l-48 -74 -7 50 c-4 27 -5 52
-2 57 3 4 21 8 40 8 41 0 37 16 -6 25 l-30 7 0 84 c0 98 9 104 65 50z m-2770
-43 c-11 -69 -25 -270 -28 -386 l-2 -128 -30 6 c-16 4 -48 9 -69 12 -22 4 -55
17 -75 30 -19 13 -65 33 -103 44 l-68 21 0 92 0 92 37 35 c21 19 46 41 55 48
19 14 19 7 2 -76 -8 -43 21 -23 55 38 27 46 55 75 125 129 50 38 94 70 98 70
4 0 6 -12 3 -27z m2617 -305 c10 -34 9 -41 -9 -61 -11 -12 -26 -31 -32 -42
-11 -17 -12 -14 -7 20 3 22 6 67 6 100 1 55 2 59 16 40 8 -11 20 -37 26 -57z
m-2945 -133 c105 -30 138 -49 68 -38 -95 15 -132 10 -164 -21 -24 -23 -35 -27
-60 -21 -17 4 -31 10 -31 15 0 8 91 89 100 89 3 1 42 -10 87 -24z m396 -87 c6
-41 2 -45 -25 -24 -15 11 -16 18 -6 50 13 41 22 33 31 -26z m1966 -459 c5
-118 20 -312 32 -432 12 -119 19 -220 16 -223 -7 -8 -209 90 -281 136 l-48 32
7 81 c4 45 13 122 20 172 15 100 12 108 -47 143 -16 9 -28 24 -28 33 0 9 44
50 98 91 53 42 124 101 157 131 33 30 61 54 62 53 2 -1 7 -99 12 -217z m291
-527 c-11 -100 -20 -189 -20 -197 0 -19 -48 -21 -56 -2 -2 7 13 87 35 177 21
91 43 185 47 210 18 97 15 -10 -6 -188z m-146 -110 c7 -63 7 -64 -16 -57 -44
13 -47 25 -25 95 22 74 29 67 41 -38z"/>
<path d="M2551 2584 c-53 -60 -57 -92 -41 -318 7 -100 11 -219 9 -266 -4 -83
-5 -87 -48 -143 -44 -58 -49 -87 -8 -50 12 11 47 36 77 55 80 51 102 79 108
136 7 77 -25 251 -70 375 -22 62 -40 122 -40 135 0 12 16 42 36 66 20 25 36
47 36 50 0 17 -22 1 -59 -40z"/>
<path d="M2267 1903 c-13 -13 -7 -20 33 -38 32 -15 43 -16 53 -6 9 10 7 17
-12 32 -23 19 -61 25 -74 12z"/>
<path d="M1600 1700 c0 -5 6 -13 13 -17 8 -4 22 -23 33 -41 31 -54 96 -88 278
-147 232 -74 295 -87 393 -83 78 3 84 5 117 37 55 53 49 66 -36 80 -91 15
-320 67 -585 132 -225 55 -213 53 -213 39z m178 -51 c48 -11 119 -29 157 -39
39 -10 93 -23 120 -29 28 -6 86 -20 130 -31 44 -10 122 -26 174 -36 l93 -16
-31 -31 c-60 -61 -183 -49 -489 47 -165 52 -222 76 -222 95 0 4 12 6 26 3 17
-3 25 -1 21 5 -4 6 -19 13 -34 16 -16 3 -37 13 -48 21 -18 14 -18 15 -2 16 10
0 57 -9 105 -21z"/>
<path d="M0 3535 c0 -107 3 -195 6 -195 3 0 32 23 63 52 31 28 92 77 136 109
44 31 89 66 100 76 11 11 37 32 58 47 20 16 37 34 37 41 0 13 -77 27 -248 45
-53 6 -109 12 -124 15 l-28 5 0 -195z"/>
<path d="M235 3250 c-104 -27 -200 -52 -213 -56 l-23 -7 2 -176 c1 -97 4 -170
6 -163 11 31 83 4 83 -32 0 -10 6 -13 15 -10 8 4 15 1 15 -6 0 -18 23 -6 26
14 1 10 6 21 10 24 4 4 4 -1 1 -10 -4 -11 -1 -18 6 -18 7 0 8 -3 2 -8 -5 -4
-20 -27 -32 -52 -12 -25 -48 -92 -78 -150 -32 -60 -55 -114 -53 -127 2 -18 11
-8 38 44 64 125 193 347 254 438 33 50 61 97 62 106 1 8 31 60 68 114 36 55
66 106 66 112 0 23 -59 14 -255 -37z"/>
<path d="M3831 2207 c-45 -16 -87 -79 -96 -142 l-7 -50 49 45 c51 49 118 97
171 124 17 9 32 21 32 26 0 14 -108 11 -149 -3z"/>
<path d="M3972 1998 c5 -15 28 -23 28 -10 0 5 -7 13 -16 16 -10 4 -14 1 -12
-6z"/>
<path d="M3905 1936 c11 -9 28 -23 38 -31 13 -12 22 -13 37 -5 28 15 25 40 -4
40 -13 0 -39 3 -57 6 -33 5 -33 5 -14 -10z"/>
<path d="M3433 1333 c-24 -9 -13 -20 25 -26 20 -3 45 -8 55 -12 33 -13 17 11
-18 28 -37 18 -42 19 -62 10z"/>
<path d="M126 1295 c-4 -11 -22 -15 -68 -16 -57 -1 -60 -2 -28 -10 51 -13 107
-2 113 22 6 22 -8 26 -17 4z"/>
<path d="M3820 1070 c-85 -21 -176 -42 -202 -45 -27 -4 -48 -11 -48 -16 0 -12
5 -12 92 5 143 28 338 78 338 87 0 13 -8 12 -180 -31z"/>
<path d="M3387 973 c-9 -2 -15 -8 -12 -12 6 -10 53 -2 61 10 5 9 -18 10 -49 2z"/>
</g>
</svg>
