<?xml version="1.0" encoding="UTF-8"?>
<svg width="99px" height="80px" viewBox="0 0 99 80" version="1.1" xmlns="http://www.w3.org/2000/svg" xmlns:xlink="http://www.w3.org/1999/xlink">
    <!-- Generator: Sketch 52.2 (67145) - http://www.bohemiancoding.com/sketch -->
    <title>elephant</title>
    <desc>Created with Sketch.</desc>
    <g id="Symbols" stroke="none" stroke-width="1" fill="none" fill-rule="evenodd">
        <g id="Logo-/-Icon" fill="#1F98B1" fill-rule="nonzero">
            <g id="elephant">
                <path d="M95.1381638,54.2394229 C107.508793,22.4677552 86.1055103,6.46243303 82.4460592,4.37631686 C74.9953151,0.12896066 57.2732285,-4.03282139 48.3265759,7.39684745 C45.7963046,10.6293416 46.6420139,14.6438336 47.8066518,17.4496402 C50.8043456,24.6698105 58.8625821,31.1620091 65.7695021,31.9199515 C67.7391017,32.1413795 69.1736927,31.6868902 70.1451711,30.5480048 C73.232784,26.930427 71.6048376,17.4125712 70.7150503,14.0499412 C70.473503,13.1342585 71.0149764,12.1933373 71.9265088,11.9484454 C72.1892135,11.8782509 72.448392,11.8892927 72.6979713,11.9403612 C73.3134956,12.0659619 73.8424313,12.5139445 74.0144333,13.1677783 C74.3876268,14.5833008 77.5320512,27.1668403 72.7348009,32.7869319 C71.6767337,34.0263768 69.7954859,35.4066049 66.6677132,35.4066049 C66.2661139,35.4066049 65.8429654,35.383141 65.3996389,35.3344387 C57.2514833,34.4388678 48.1416444,27.1650657 44.6575257,18.7726874 C43.7808639,16.6613328 43.3436104,14.6191867 43.296398,12.6927826 C23.7594744,12.6927826 1.45660928,23.6549485 0.00379938373,43.3726899 C-0.0428253135,44.0052287 0.343689509,44.5886708 0.941974489,44.7882124 C1.54025947,44.9895285 2.19829459,44.7548897 2.5366175,44.2199528 C3.73632189,42.3239137 5.23027122,40.2711202 6.71422955,38.9780436 C6.92717512,42.0833597 7.86437072,45.0502586 9.48350148,47.7586604 C12.7260729,53.1825625 14.4574555,59.4113347 14.4574555,65.7406664 L14.4884081,77.4239029 C14.6535535,78.8555937 18.0136662,80 22.1640478,80 C26.3159967,80 29.6761093,78.8555937 29.8414507,77.4239029 L29.8724032,69.8415212 C29.8724032,67.850838 30.697151,65.9488837 32.1468265,64.5934997 C33.5965019,63.2383129 35.5390671,62.6950945 37.5170905,62.6950945 C38.7440252,62.6950945 41.2547064,62.6968691 41.4014371,62.6950945 C43.2993365,62.6751798 45.1272989,63.5502444 46.4751053,64.8953753 C47.8248707,66.2405061 48.5832077,68.0718716 48.5832077,69.9823045 L48.6141602,77.4237057 C48.7793057,78.8553966 52.1392224,79.9998028 56.2898,79.9998028 C60.4417489,79.9998028 63.8018615,78.8553966 63.9672029,77.4237057 L63.9981554,70.8745234 C63.9981554,51.433222 78.1528649,42.7576997 79.8346844,41.7292326 C88.1812888,36.6251491 84.4736459,52.0921823 84.4736459,52.0921823 C78.9282454,69.4806902 91.7253535,77.4237057 91.7253535,77.4237057 C92.6999664,78.1213124 94.1917608,77.5244623 95.2096681,76.1625715 C96.1484309,74.9124792 96.3200411,73.4880839 95.7129405,72.776872 C88.9527512,67.3344355 95.1381638,54.2394229 95.1381638,54.2394229 Z" id="Shape"></path>
            </g>
        </g>
    </g>
</svg>