<?xml version="1.0" encoding="UTF-8"?>
<svg width="168px" height="223px" viewBox="0 0 168 223" version="1.1" xmlns="http://www.w3.org/2000/svg" xmlns:xlink="http://www.w3.org/1999/xlink">
    <!-- Generator: Sketch 52.2 (67145) - http://www.bohemiancoding.com/sketch -->
    <title>logo-vertical</title>
    <desc>Created with Sketch.</desc>
    <g id="Symbols" stroke="none" stroke-width="1" fill="none" fill-rule="evenodd">
        <g id="Logo-/-Vertical" fill="#1F98B1">
            <g id="logo-vertical">
                <g id="Logo-/-Icon">
                    <g id="elephant">
                        <path d="M161.446581,91.5290261 C182.439164,37.9143369 146.118442,10.9053557 139.908464,7.38503469 C127.264777,0.217621113 97.1909331,-6.8053861 82.0087349,12.4821801 C77.7149411,17.937014 79.1500842,24.7114693 81.1264394,29.4462678 C86.2134349,41.6303053 99.8880181,52.5858904 111.608852,53.8649182 C114.951203,54.238578 117.38566,53.4716271 119.03423,51.5497581 C124.273815,45.4450955 121.51124,29.3837139 120.001298,23.7092758 C119.591399,22.1640612 120.510263,20.5762566 122.057106,20.1630015 C122.502908,20.0445484 122.942726,20.0631815 123.366254,20.1493595 C124.41078,20.3613107 125.308368,21.1172814 125.60025,22.2206259 C126.233548,24.6093201 131.569541,45.844043 123.428753,55.3279477 C121.633245,57.4195108 118.440825,59.7486457 113.133089,59.7486457 C112.451587,59.7486457 111.733517,59.7090504 110.981205,59.6268652 C97.1540323,58.1155894 81.6949117,45.8410484 75.7824679,31.67891 C74.2947993,28.115999 73.5527934,24.6698776 73.4726754,21.4190707 C40.3191081,21.4190707 2.4718218,39.9177256 0.00644743905,73.1914142 C-0.0726732593,74.2588235 0.583230681,75.2433821 1.59850216,75.5801084 C2.61377365,75.9198294 3.7304393,75.5238764 4.30456302,74.6211703 C6.34042503,71.4216044 8.87561177,67.9575153 11.3938441,65.7754487 C11.7552063,71.0156695 13.3455988,76.0223113 16.0932146,80.5927395 C21.59576,89.7455742 24.5338639,100.256627 24.5338639,110.937375 L24.5863894,130.652836 C24.8666363,133.068814 30.5686456,135 37.6117175,135 C44.6574489,135 50.3594583,133.068814 50.6400376,130.652836 L50.6925631,117.857567 C50.6925631,114.498289 52.0921351,111.288741 54.5521904,109.001531 C57.0122457,106.714653 60.3087199,105.797972 63.6653656,105.797972 C65.7474368,105.797972 70.0079867,105.800967 70.2569842,105.797972 C73.477662,105.764366 76.5796588,107.241037 78.8668454,109.510946 C81.1573563,111.780854 82.4442312,114.871283 82.4442312,118.095139 L82.4967567,130.652503 C82.7770036,133.068482 88.4786804,134.999667 95.5220848,134.999667 C102.567816,134.999667 108.269826,133.068482 108.550405,130.652503 L108.60293,119.600758 C108.60293,86.7935621 132.623044,72.1536182 135.47704,70.41808 C149.640975,61.8049391 143.349217,87.9055576 143.349217,87.9055576 C133.938841,117.248665 155.655145,130.652503 155.655145,130.652503 C157.309034,131.829715 159.840564,130.82253 161.567922,128.524339 C163.160974,126.414809 163.452191,124.011142 162.42196,122.810972 C150.950123,113.62686 161.446581,91.5290261 161.446581,91.5290261 Z" id="Shape" fill-rule="nonzero"></path>
                    </g>
                </g>
                <g id="Logo-/-Text" transform="translate(1.000000, 158.000000)">
                    <g id="logo-text">
                        <path d="M19.9770508,24.8476562 L9.18994141,24.8476562 L7.13916016,31 L0.597167969,31 L11.7124023,1.140625 L17.4135742,1.140625 L28.590332,31 L22.0483398,31 L19.9770508,24.8476562 Z M10.8510742,19.8642578 L18.315918,19.8642578 L14.5629883,8.6875 L10.8510742,19.8642578 Z M36.5473633,8.81054688 L36.7319336,11.2919922 C38.3042071,9.36424817 40.4301624,8.40039062 43.1098633,8.40039062 C45.9672994,8.40039062 47.9291939,9.52830903 48.9956055,11.7841797 C50.554207,9.52830903 52.7758645,8.40039062 55.6606445,8.40039062 C58.0669066,8.40039062 59.8579043,9.10106721 61.0336914,10.5024414 C62.2094785,11.9038156 62.7973633,14.0126812 62.7973633,16.8291016 L62.7973633,31 L56.8500977,31 L56.8500977,16.8496094 C56.8500977,15.5917906 56.6040064,14.6723662 56.1118164,14.0913086 C55.6196264,13.510251 54.7514711,13.2197266 53.5073242,13.2197266 C51.7299716,13.2197266 50.4995151,14.0673743 49.815918,15.7626953 L49.8364258,31 L43.909668,31 L43.909668,16.8701172 C43.909668,15.5849545 43.6567408,14.6552763 43.1508789,14.0810547 C42.645017,13.5068331 41.7836975,13.2197266 40.5668945,13.2197266 C38.8852455,13.2197266 37.6684608,13.9169852 36.9165039,15.3115234 L36.9165039,31 L30.9897461,31 L30.9897461,8.81054688 L36.5473633,8.81054688 Z M72.8051758,8.81054688 L72.9897461,11.3740234 C74.5756915,9.39159165 76.7016468,8.40039062 79.3676758,8.40039062 C81.71925,8.40039062 83.4692325,9.09081341 84.6176758,10.4716797 C85.766119,11.852546 86.3540038,13.9169784 86.3813477,16.6650391 L86.3813477,31 L80.4545898,31 L80.4545898,16.8085938 C80.4545898,15.550775 80.1811551,14.6381864 79.6342773,14.0708008 C79.0873996,13.5034151 78.178229,13.2197266 76.9067383,13.2197266 C75.2387612,13.2197266 73.9877971,13.930657 73.1538086,15.3525391 L73.1538086,31 L67.2270508,31 L67.2270508,8.81054688 L72.8051758,8.81054688 Z M101.085449,31.4101562 C97.8315267,31.4101562 95.1826274,30.4121194 93.1386719,28.4160156 C91.0947163,26.4199119 90.0727539,23.7607588 90.0727539,20.4384766 L90.0727539,19.8642578 C90.0727539,17.635731 90.5034137,15.6430752 91.3647461,13.8862305 C92.2260785,12.1293857 93.4462812,10.7758837 95.0253906,9.82568359 C96.6045001,8.87548353 98.4057516,8.40039062 100.429199,8.40039062 C103.464371,8.40039062 105.853507,9.3574123 107.59668,11.2714844 C109.339852,13.1855564 110.211426,15.8993965 110.211426,19.4130859 L110.211426,21.8330078 L96.081543,21.8330078 C96.2729502,23.2822338 96.8505811,24.4443316 97.8144531,25.3193359 C98.7783251,26.1943403 99.9985278,26.6318359 101.475098,26.6318359 C103.758312,26.6318359 105.542474,25.8046958 106.827637,24.1503906 L109.739746,27.4111328 C108.85107,28.6689516 107.647957,29.6498988 106.130371,30.3540039 C104.612785,31.058109 102.931162,31.4101562 101.085449,31.4101562 Z M100.408691,13.1992188 C99.2329043,13.1992188 98.2793005,13.5956992 97.5478516,14.3886719 C96.8164026,15.1816446 96.3481456,16.3163989 96.1430664,17.7929688 L104.387207,17.7929688 L104.387207,17.3212891 C104.359863,16.0087825 104.004398,14.9936559 103.320801,14.2758789 C102.637204,13.5581019 101.66651,13.1992188 100.408691,13.1992188 Z M125.592285,24.8681641 C125.592285,24.1435511 125.233402,23.572756 124.515625,23.1557617 C123.797848,22.7387674 122.646004,22.3662126 121.060059,22.0380859 C115.782688,20.9306585 113.144043,18.6884934 113.144043,15.3115234 C113.144043,13.3427636 113.960929,11.6987371 115.594727,10.3793945 C117.228524,9.060052 119.364733,8.40039062 122.003418,8.40039062 C124.819838,8.40039062 127.072257,9.06346993 128.760742,10.3896484 C130.449227,11.7158269 131.293457,13.438466 131.293457,15.5576172 L125.366699,15.5576172 C125.366699,14.7099567 125.093264,14.0092801 124.546387,13.4555664 C123.999509,12.9018527 123.145025,12.625 121.98291,12.625 C120.984858,12.625 120.212405,12.8505837 119.665527,13.3017578 C119.11865,13.7529319 118.845215,14.327145 118.845215,15.0244141 C118.845215,15.6806673 119.156247,16.2104472 119.77832,16.6137695 C120.400394,17.0170919 121.4497,17.3657212 122.92627,17.659668 C124.402839,17.9536148 125.646968,18.2851544 126.658691,18.6542969 C129.789566,19.8027401 131.35498,21.791978 131.35498,24.6220703 C131.35498,26.6455179 130.486825,28.2827086 128.750488,29.5336914 C127.014151,30.7846742 124.771986,31.4101562 122.023926,31.4101562 C120.164541,31.4101562 118.513679,31.0786166 117.071289,30.4155273 C115.628899,29.7524381 114.497563,28.8432675 113.677246,27.6879883 C112.856929,26.5327091 112.446777,25.2851629 112.446777,23.9453125 L118.065918,23.9453125 C118.120606,24.9980521 118.51025,25.8046847 119.234863,26.3652344 C119.959476,26.9257841 120.93017,27.2060547 122.146973,27.2060547 C123.281744,27.2060547 124.139646,26.9907248 124.720703,26.5600586 C125.301761,26.1293924 125.592285,25.5654332 125.592285,24.8681641 Z M141.424316,31 L135.477051,31 L135.477051,8.81054688 L141.424316,8.81054688 L141.424316,31 Z M135.128418,3.06835938 C135.128418,2.17968306 135.425778,1.44824506 136.020508,0.874023437 C136.615237,0.299801816 137.425288,0.0126953125 138.450684,0.0126953125 C139.462407,0.0126953125 140.26904,0.299801816 140.870605,0.874023437 C141.472171,1.44824506 141.772949,2.17968306 141.772949,3.06835938 C141.772949,3.97070764 141.468753,4.7089815 140.860352,5.28320312 C140.25195,5.85742475 139.448735,6.14453125 138.450684,6.14453125 C137.452632,6.14453125 136.649417,5.85742475 136.041016,5.28320312 C135.432614,4.7089815 135.128418,3.97070764 135.128418,3.06835938 Z M159.163574,31 C158.890135,30.4667942 158.691895,29.8037149 158.568848,29.0107422 C157.133294,30.6103596 155.267101,31.4101562 152.970215,31.4101562 C150.796376,31.4101562 148.995124,30.7812563 147.566406,29.5234375 C146.137688,28.2656187 145.42334,26.6796971 145.42334,24.765625 C145.42334,22.4140507 146.294913,20.6093813 148.038086,19.3515625 C149.781259,18.0937437 152.300276,17.4580079 155.595215,17.4443359 L158.322754,17.4443359 L158.322754,16.1728516 C158.322754,15.1474558 158.059573,14.3271515 157.533203,13.7119141 C157.006833,13.0966766 156.176275,12.7890625 155.041504,12.7890625 C154.043452,12.7890625 153.260745,13.0283179 152.693359,13.5068359 C152.125974,13.985354 151.842285,14.6415974 151.842285,15.4755859 L145.915527,15.4755859 C145.915527,14.1904233 146.312008,13.000982 147.10498,11.9072266 C147.897953,10.8134711 149.019036,9.95556952 150.468262,9.33349609 C151.917488,8.71142267 153.544425,8.40039062 155.349121,8.40039062 C158.08351,8.40039062 160.253898,9.08739547 161.860352,10.4614258 C163.466805,11.8354561 164.27002,13.7665891 164.27002,16.2548828 L164.27002,25.8730469 C164.283691,27.9785262 164.577634,29.5712837 165.151855,30.6513672 L165.151855,31 L159.163574,31 Z M154.262207,26.8779297 C155.137211,26.8779297 155.943844,26.6831074 156.682129,26.293457 C157.420414,25.9038066 157.967283,25.3808627 158.322754,24.7246094 L158.322754,20.9101562 L156.10791,20.9101562 C153.141098,20.9101562 151.562013,21.9355366 151.370605,23.9863281 L151.350098,24.3349609 C151.350098,25.0732459 151.609861,25.6816382 152.129395,26.1601562 C152.648928,26.6386743 153.359859,26.8779297 154.262207,26.8779297 Z" id="Amnesia"></path>
                        <path d="M1.58886719,54.5605469 C1.58886719,53.5449168 1.78580532,52.6302124 2.1796875,51.8164062 C2.57356968,51.0026001 3.13020474,50.3694684 3.84960938,49.9169922 C4.56901401,49.464516 5.38443555,49.2382812 6.29589844,49.2382812 C7.70215547,49.2382812 8.84146699,49.7314404 9.71386719,50.7177734 C10.5862674,51.7041065 11.0224609,53.0110596 11.0224609,54.6386719 L11.0224609,54.8828125 C11.0224609,55.904953 10.8255228,56.8245402 10.4316406,57.6416016 C10.0377584,58.4586629 9.48275098,59.0885395 8.76660156,59.53125 C8.05045215,59.9739605 7.23340303,60.1953125 6.31542969,60.1953125 C4.91568311,60.1953125 3.77799917,59.7021534 2.90234375,58.7158203 C2.02668833,57.7294873 1.58886719,56.4225342 1.58886719,54.7949219 L1.58886719,54.5605469 Z M2.76074219,54.8828125 C2.76074219,56.1458396 3.08788735,57.1826131 3.7421875,57.9931641 C4.39648765,58.803715 5.25422646,59.2089844 6.31542969,59.2089844 C7.37012246,59.2089844 8.2246061,58.803715 8.87890625,57.9931641 C9.5332064,57.1826131 9.86035156,56.1132879 9.86035156,54.7851562 L9.86035156,54.5605469 C9.86035156,53.7532512 9.71061348,53.0143263 9.41113281,52.34375 C9.11165215,51.6731737 8.69173447,51.1539732 8.15136719,50.7861328 C7.6109999,50.4182924 6.9925165,50.234375 6.29589844,50.234375 C5.25422656,50.234375 4.40462568,50.6428996 3.74707031,51.4599609 C3.08951494,52.2770223 2.76074219,53.3463476 2.76074219,54.6679688 L2.76074219,54.8828125 Z M19.5576172,49.4335938 L19.5576172,61.2597656 C19.5576172,62.236333 19.3232445,62.9817683 18.8544922,63.4960938 C18.3857398,64.0104192 17.6956426,64.2675781 16.7841797,64.2675781 C16.4326154,64.2675781 16.090822,64.2057298 15.7587891,64.0820312 L15.7783203,63.1152344 C16.0647801,63.1998702 16.3577459,63.2421875 16.6572266,63.2421875 C17.8160865,63.2421875 18.3955078,62.5748765 18.3955078,61.2402344 L18.3955078,49.4335938 L19.5576172,49.4335938 Z M18.9814453,45.5859375 C19.2353528,45.5859375 19.4339186,45.6624341 19.5771484,45.8154297 C19.7203783,45.9684252 19.7919922,46.1555979 19.7919922,46.3769531 C19.7919922,46.5983084 19.7203783,46.7838534 19.5771484,46.9335938 C19.4339186,47.0833341 19.2353528,47.1582031 18.9814453,47.1582031 C18.7340482,47.1582031 18.5403653,47.0833341 18.4003906,46.9335938 C18.260416,46.7838534 18.1904297,46.5983084 18.1904297,46.3769531 C18.1904297,46.1555979 18.260416,45.9684252 18.4003906,45.8154297 C18.5403653,45.6624341 18.7340482,45.5859375 18.9814453,45.5859375 Z M22.2138672,54.5605469 C22.2138672,53.5449168 22.4108053,52.6302124 22.8046875,51.8164062 C23.1985697,51.0026001 23.7552047,50.3694684 24.4746094,49.9169922 C25.194014,49.464516 26.0094355,49.2382812 26.9208984,49.2382812 C28.3271555,49.2382812 29.466467,49.7314404 30.3388672,50.7177734 C31.2112674,51.7041065 31.6474609,53.0110596 31.6474609,54.6386719 L31.6474609,54.8828125 C31.6474609,55.904953 31.4505228,56.8245402 31.0566406,57.6416016 C30.6627584,58.4586629 30.107751,59.0885395 29.3916016,59.53125 C28.6754521,59.9739605 27.858403,60.1953125 26.9404297,60.1953125 C25.5406831,60.1953125 24.4029992,59.7021534 23.5273438,58.7158203 C22.6516883,57.7294873 22.2138672,56.4225342 22.2138672,54.7949219 L22.2138672,54.5605469 Z M23.3857422,54.8828125 C23.3857422,56.1458396 23.7128874,57.1826131 24.3671875,57.9931641 C25.0214876,58.803715 25.8792265,59.2089844 26.9404297,59.2089844 C27.9951225,59.2089844 28.8496061,58.803715 29.5039062,57.9931641 C30.1582064,57.1826131 30.4853516,56.1132879 30.4853516,54.7851562 L30.4853516,54.5605469 C30.4853516,53.7532512 30.3356135,53.0143263 30.0361328,52.34375 C29.7366521,51.6731737 29.3167345,51.1539732 28.7763672,50.7861328 C28.2359999,50.4182924 27.6175165,50.234375 26.9208984,50.234375 C25.8792266,50.234375 25.0296257,50.6428996 24.3720703,51.4599609 C23.7145149,52.2770223 23.3857422,53.3463476 23.3857422,54.6679688 L23.3857422,54.8828125 Z M33.5908203,54.6191406 C33.5908203,52.9654865 33.9570276,51.6552783 34.6894531,50.6884766 C35.4218787,49.7216749 36.4163349,49.2382812 37.6728516,49.2382812 C39.1116608,49.2382812 40.2053999,49.8111922 40.9541016,50.9570312 L41.0126953,49.4335938 L42.1064453,49.4335938 L42.1064453,59.7851562 C42.1064453,61.1458401 41.7255897,62.2233033 40.9638672,63.0175781 C40.2021446,63.8118529 39.1702539,64.2089844 37.8681641,64.2089844 C37.1324833,64.2089844 36.4309929,64.044598 35.7636719,63.7158203 C35.0963508,63.3870426 34.5706399,62.9492215 34.1865234,62.4023438 L34.8408203,61.6992188 C35.6676474,62.7148488 36.6507104,63.2226562 37.7900391,63.2226562 C38.7666064,63.2226562 39.5283176,62.9345732 40.0751953,62.3583984 C40.622073,61.7822237 40.9052733,60.983078 40.9248047,59.9609375 L40.9248047,58.6328125 C40.176103,59.6744844 39.0856191,60.1953125 37.6533203,60.1953125 C36.4293559,60.1953125 35.4462928,59.7070361 34.7041016,58.7304688 C33.9619104,57.7539014 33.5908203,56.4355552 33.5908203,54.7753906 L33.5908203,54.6191406 Z M34.7724609,54.8242188 C34.7724609,56.1718817 35.0426405,57.2346966 35.5830078,58.0126953 C36.1233751,58.790694 36.8850862,59.1796875 37.8681641,59.1796875 C39.3069733,59.1796875 40.3258434,58.5351627 40.9248047,57.2460938 L40.9248047,52.3339844 C40.6513658,51.6568977 40.2574896,51.1409523 39.7431641,50.7861328 C39.2288386,50.4313133 38.6103552,50.2539062 37.8876953,50.2539062 C36.9046175,50.2539062 36.1396512,50.6396446 35.5927734,51.4111328 C35.0458957,52.182621 34.7724609,53.320305 34.7724609,54.8242188 Z M44.5087891,54.5605469 C44.5087891,53.5449168 44.7057272,52.6302124 45.0996094,51.8164062 C45.4934916,51.0026001 46.0501266,50.3694684 46.7695312,49.9169922 C47.4889359,49.464516 48.3043574,49.2382812 49.2158203,49.2382812 C50.6220773,49.2382812 51.7613889,49.7314404 52.6337891,50.7177734 C53.5061893,51.7041065 53.9423828,53.0110596 53.9423828,54.6386719 L53.9423828,54.8828125 C53.9423828,55.904953 53.7454447,56.8245402 53.3515625,57.6416016 C52.9576803,58.4586629 52.4026729,59.0885395 51.6865234,59.53125 C50.970374,59.9739605 50.1533249,60.1953125 49.2353516,60.1953125 C47.835605,60.1953125 46.697921,59.7021534 45.8222656,58.7158203 C44.9466102,57.7294873 44.5087891,56.4225342 44.5087891,54.7949219 L44.5087891,54.5605469 Z M45.6806641,54.8828125 C45.6806641,56.1458396 46.0078092,57.1826131 46.6621094,57.9931641 C47.3164095,58.803715 48.1741483,59.2089844 49.2353516,59.2089844 C50.2900443,59.2089844 51.144528,58.803715 51.7988281,57.9931641 C52.4531283,57.1826131 52.7802734,56.1132879 52.7802734,54.7851562 L52.7802734,54.5605469 C52.7802734,53.7532512 52.6305354,53.0143263 52.3310547,52.34375 C52.031574,51.6731737 51.6116563,51.1539732 51.0712891,50.7861328 C50.5309218,50.4182924 49.9124384,50.234375 49.2158203,50.234375 C48.1741484,50.234375 47.3245476,50.6428996 46.6669922,51.4599609 C46.0094368,52.2770223 45.6806641,53.3463476 45.6806641,54.6679688 L45.6806641,54.8828125 Z M60.7490234,54.6191406 C60.7490234,52.9785074 61.1152307,51.6715543 61.8476562,50.6982422 C62.5800818,49.72493 63.574538,49.2382812 64.8310547,49.2382812 C66.2568431,49.2382812 67.3440718,49.8014267 68.0927734,50.9277344 L68.0927734,45 L69.2548828,45 L69.2548828,60 L68.1611328,60 L68.1123047,58.59375 C67.363603,59.6614637 66.2633536,60.1953125 64.8115234,60.1953125 C63.5940694,60.1953125 62.6126339,59.7054085 61.8671875,58.7255859 C61.1217411,57.7457633 60.7490234,56.4225344 60.7490234,54.7558594 L60.7490234,54.6191406 Z M61.9306641,54.8242188 C61.9306641,56.1718817 62.2008437,57.2346966 62.7412109,58.0126953 C63.2815782,58.790694 64.0432894,59.1796875 65.0263672,59.1796875 C66.4651765,59.1796875 67.4873017,58.5449282 68.0927734,57.2753906 L68.0927734,52.3144531 C67.4873017,50.9407483 66.4716868,50.2539062 65.0458984,50.2539062 C64.0628206,50.2539062 63.2978543,50.6396446 62.7509766,51.4111328 C62.2040988,52.182621 61.9306641,53.320305 61.9306641,54.8242188 Z M79.0009766,60 C78.8837885,59.6679671 78.8089194,59.1764355 78.7763672,58.5253906 C78.3662089,59.0592475 77.8437532,59.4710272 77.2089844,59.7607422 C76.5742156,60.0504572 75.9020218,60.1953125 75.1923828,60.1953125 C74.1767527,60.1953125 73.3548208,59.9121122 72.7265625,59.3457031 C72.0983042,58.779294 71.7841797,58.0631554 71.7841797,57.1972656 C71.7841797,56.1686146 72.2122353,55.3548207 73.0683594,54.7558594 C73.9244834,54.156898 75.1175054,53.8574219 76.6474609,53.8574219 L78.7666016,53.8574219 L78.7666016,52.65625 C78.7666016,51.9010379 78.5338565,51.3069683 78.0683594,50.8740234 C77.6028623,50.4410786 76.9241581,50.2246094 76.0322266,50.2246094 C75.2184204,50.2246094 74.544599,50.4329406 74.0107422,50.8496094 C73.4768854,51.2662781 73.2099609,51.7675752 73.2099609,52.3535156 L72.0380859,52.34375 C72.0380859,51.5039021 72.428707,50.7763703 73.2099609,50.1611328 C73.9912148,49.5458954 74.9514917,49.2382812 76.0908203,49.2382812 C77.2692116,49.2382812 78.1985643,49.5328747 78.8789062,50.1220703 C79.5592482,50.711266 79.9091796,51.5331979 79.9287109,52.5878906 L79.9287109,57.5878906 C79.9287109,58.6100312 80.0361317,59.3749975 80.2509766,59.8828125 L80.2509766,60 L79.0009766,60 Z M75.3291016,59.1601562 C76.1103555,59.1601562 76.8085907,58.9713561 77.4238281,58.59375 C78.0390656,58.2161439 78.4866522,57.7115917 78.7666016,57.0800781 L78.7666016,54.7558594 L76.6767578,54.7558594 C75.5113874,54.7688803 74.5999382,54.9820943 73.9423828,55.3955078 C73.2848274,55.8089213 72.9560547,56.3769495 72.9560547,57.0996094 C72.9560547,57.6920603 73.1757791,58.1835918 73.6152344,58.5742188 C74.0546897,58.9648457 74.625973,59.1601562 75.3291016,59.1601562 Z M88.9716797,49.4335938 L89.0107422,51.1523438 C89.4013691,50.5143197 89.8896455,50.0358089 90.4755859,49.7167969 C91.0615264,49.3977849 91.7125615,49.2382812 92.4287109,49.2382812 C94.0953859,49.2382812 95.1533181,49.9218682 95.6025391,51.2890625 C95.9801451,50.6315071 96.4846974,50.1253273 97.1162109,49.7705078 C97.7477245,49.4156883 98.4443321,49.2382812 99.2060547,49.2382812 C101.471691,49.2382812 102.627278,50.475248 102.672852,52.9492188 L102.672852,60 L101.500977,60 L101.500977,53.0371094 C101.494466,52.0930942 101.291018,51.3932314 100.890625,50.9375 C100.490232,50.4817686 99.8375696,50.2539062 98.9326172,50.2539062 C98.0927692,50.2669271 97.3831409,50.5387343 96.8037109,51.0693359 C96.224281,51.5999375 95.9020186,52.2460899 95.8369141,53.0078125 L95.8369141,60 L94.6650391,60 L94.6650391,52.9492188 C94.6585286,52.0442663 94.4453146,51.3688173 94.0253906,50.9228516 C93.6054667,50.4768858 92.9593143,50.2539062 92.0869141,50.2539062 C91.3512333,50.2539062 90.7197292,50.4638651 90.1923828,50.8837891 C89.6650364,51.303713 89.2744153,51.9270792 89.0205078,52.7539062 L89.0205078,60 L87.8486328,60 L87.8486328,49.4335938 L88.9716797,49.4335938 Z M109.723633,60.1953125 C108.825191,60.1953125 108.013024,59.9739605 107.287109,59.53125 C106.561194,59.0885395 105.996421,58.4716836 105.592773,57.6806641 C105.189126,56.8896445 104.987305,56.0026091 104.987305,55.0195312 L104.987305,54.5996094 C104.987305,53.5839793 105.184243,52.6692749 105.578125,51.8554688 C105.972007,51.0416626 106.520504,50.4020206 107.223633,49.9365234 C107.926761,49.4710263 108.688472,49.2382812 109.508789,49.2382812 C110.791348,49.2382812 111.80859,49.6761024 112.560547,50.5517578 C113.312504,51.4274132 113.688477,52.6236903 113.688477,54.140625 L113.688477,54.7949219 L106.149414,54.7949219 L106.149414,55.0195312 C106.149414,56.2174539 106.492835,57.2151653 107.179688,58.0126953 C107.86654,58.8102253 108.730789,59.2089844 109.772461,59.2089844 C110.397464,59.2089844 110.949216,59.0950532 111.427734,58.8671875 C111.906252,58.6393218 112.340818,58.2747421 112.731445,57.7734375 L113.463867,58.3300781 C112.604488,59.5735739 111.357756,60.1953125 109.723633,60.1953125 Z M109.508789,50.234375 C108.629878,50.234375 107.889326,50.5566374 107.287109,51.2011719 C106.684893,51.8457063 106.318686,52.7115831 106.188477,53.7988281 L112.526367,53.7988281 L112.526367,53.671875 C112.493815,52.6562449 112.204104,51.8294303 111.657227,51.1914062 C111.110349,50.5533822 110.39421,50.234375 109.508789,50.234375 Z M117.02832,49.4335938 L117.067383,51.1523438 C117.45801,50.5143197 117.946286,50.0358089 118.532227,49.7167969 C119.118167,49.3977849 119.769202,49.2382812 120.485352,49.2382812 C122.152027,49.2382812 123.209959,49.9218682 123.65918,51.2890625 C124.036786,50.6315071 124.541338,50.1253273 125.172852,49.7705078 C125.804365,49.4156883 126.500973,49.2382812 127.262695,49.2382812 C129.528332,49.2382812 130.683919,50.475248 130.729492,52.9492188 L130.729492,60 L129.557617,60 L129.557617,53.0371094 C129.551107,52.0930942 129.347658,51.3932314 128.947266,50.9375 C128.546873,50.4817686 127.89421,50.2539062 126.989258,50.2539062 C126.14941,50.2669271 125.439782,50.5387343 124.860352,51.0693359 C124.280922,51.5999375 123.958659,52.2460899 123.893555,53.0078125 L123.893555,60 L122.72168,60 L122.72168,52.9492188 C122.715169,52.0442663 122.501955,51.3688173 122.082031,50.9228516 C121.662107,50.4768858 121.015955,50.2539062 120.143555,50.2539062 C119.407874,50.2539062 118.77637,50.4638651 118.249023,50.8837891 C117.721677,51.303713 117.331056,51.9270792 117.077148,52.7539062 L117.077148,60 L115.905273,60 L115.905273,49.4335938 L117.02832,49.4335938 Z M133.043945,54.5605469 C133.043945,53.5449168 133.240883,52.6302124 133.634766,51.8164062 C134.028648,51.0026001 134.585283,50.3694684 135.304688,49.9169922 C136.024092,49.464516 136.839514,49.2382812 137.750977,49.2382812 C139.157234,49.2382812 140.296545,49.7314404 141.168945,50.7177734 C142.041346,51.7041065 142.477539,53.0110596 142.477539,54.6386719 L142.477539,54.8828125 C142.477539,55.904953 142.280601,56.8245402 141.886719,57.6416016 C141.492837,58.4586629 140.937829,59.0885395 140.22168,59.53125 C139.50553,59.9739605 138.688481,60.1953125 137.770508,60.1953125 C136.370761,60.1953125 135.233077,59.7021534 134.357422,58.7158203 C133.481766,57.7294873 133.043945,56.4225342 133.043945,54.7949219 L133.043945,54.5605469 Z M134.21582,54.8828125 C134.21582,56.1458396 134.542965,57.1826131 135.197266,57.9931641 C135.851566,58.803715 136.709305,59.2089844 137.770508,59.2089844 C138.825201,59.2089844 139.679684,58.803715 140.333984,57.9931641 C140.988285,57.1826131 141.31543,56.1132879 141.31543,54.7851562 L141.31543,54.5605469 C141.31543,53.7532512 141.165692,53.0143263 140.866211,52.34375 C140.56673,51.6731737 140.146813,51.1539732 139.606445,50.7861328 C139.066078,50.4182924 138.447595,50.234375 137.750977,50.234375 C136.709305,50.234375 135.859704,50.6428996 135.202148,51.4599609 C134.544593,52.2770223 134.21582,53.3463476 134.21582,54.6679688 L134.21582,54.8828125 Z M138.913086,45.1171875 L140.329102,45.1171875 L138.073242,47.8417969 L137.047852,47.8417969 L138.913086,45.1171875 Z M149.772461,50.4296875 C149.525064,50.3841144 149.261395,50.3613281 148.981445,50.3613281 C148.252275,50.3613281 147.635419,50.5647766 147.130859,50.9716797 C146.6263,51.3785828 146.266603,51.9693972 146.051758,52.7441406 L146.051758,60 L144.889648,60 L144.889648,49.4335938 L146.032227,49.4335938 L146.051758,51.1132812 C146.67025,49.863275 147.663079,49.2382812 149.030273,49.2382812 C149.355796,49.2382812 149.612955,49.2805985 149.801758,49.3652344 L149.772461,50.4296875 Z M152.926758,60 L151.754883,60 L151.754883,49.4335938 L152.926758,49.4335938 L152.926758,60 Z M151.549805,46.3769531 C151.549805,46.1555979 151.621419,45.9684252 151.764648,45.8154297 C151.907878,45.6624341 152.103189,45.5859375 152.350586,45.5859375 C152.597983,45.5859375 152.794921,45.6624341 152.941406,45.8154297 C153.087891,45.9684252 153.161133,46.1555979 153.161133,46.3769531 C153.161133,46.5983084 153.087891,46.7838534 152.941406,46.9335938 C152.794921,47.0833341 152.597983,47.1582031 152.350586,47.1582031 C152.103189,47.1582031 151.907878,47.0833341 151.764648,46.9335938 C151.621419,46.7838534 151.549805,46.5983084 151.549805,46.3769531 Z M162.770508,60 C162.65332,59.6679671 162.578451,59.1764355 162.545898,58.5253906 C162.13574,59.0592475 161.613284,59.4710272 160.978516,59.7607422 C160.343747,60.0504572 159.671553,60.1953125 158.961914,60.1953125 C157.946284,60.1953125 157.124352,59.9121122 156.496094,59.3457031 C155.867835,58.779294 155.553711,58.0631554 155.553711,57.1972656 C155.553711,56.1686146 155.981767,55.3548207 156.837891,54.7558594 C157.694015,54.156898 158.887037,53.8574219 160.416992,53.8574219 L162.536133,53.8574219 L162.536133,52.65625 C162.536133,51.9010379 162.303388,51.3069683 161.837891,50.8740234 C161.372394,50.4410786 160.693689,50.2246094 159.801758,50.2246094 C158.987952,50.2246094 158.31413,50.4329406 157.780273,50.8496094 C157.246417,51.2662781 156.979492,51.7675752 156.979492,52.3535156 L155.807617,52.34375 C155.807617,51.5039021 156.198238,50.7763703 156.979492,50.1611328 C157.760746,49.5458954 158.721023,49.2382812 159.860352,49.2382812 C161.038743,49.2382812 161.968096,49.5328747 162.648438,50.1220703 C163.328779,50.711266 163.678711,51.5331979 163.698242,52.5878906 L163.698242,57.5878906 C163.698242,58.6100312 163.805663,59.3749975 164.020508,59.8828125 L164.020508,60 L162.770508,60 Z M159.098633,59.1601562 C159.879887,59.1601562 160.578122,58.9713561 161.193359,58.59375 C161.808597,58.2161439 162.256183,57.7115917 162.536133,57.0800781 L162.536133,54.7558594 L160.446289,54.7558594 C159.280919,54.7688803 158.369469,54.9820943 157.711914,55.3955078 C157.054359,55.8089213 156.725586,56.3769495 156.725586,57.0996094 C156.725586,57.6920603 156.94531,58.1835918 157.384766,58.5742188 C157.824221,58.9648457 158.395504,59.1601562 159.098633,59.1601562 Z" id="o-jogo-da-memória"></path>
                    </g>
                </g>
            </g>
        </g>
    </g>
</svg>