<?xml version="1.0" encoding="UTF-8"?>
<svg width="272px" height="70px" viewBox="0 0 272 70" version="1.1" xmlns="http://www.w3.org/2000/svg" xmlns:xlink="http://www.w3.org/1999/xlink">
    <!-- Generator: Sketch 52.2 (67145) - http://www.bohemiancoding.com/sketch -->
    <title>logo-horizontal</title>
    <desc>Created with Sketch.</desc>
    <g id="Symbols" stroke="none" stroke-width="1" fill="none" fill-rule="evenodd">
        <g id="Logo-/-Horixontal" fill="#1F98B1">
            <g id="logo-horizontal">
                <g id="Logo-/-Icon">
                    <g id="elephant">
                        <path d="M83.6062651,47.459495 C94.4774242,19.6592858 75.6684787,5.6546289 72.4525975,3.82927725 C65.9049738,0.112840577 50.331019,-3.52871872 42.4688092,6.47224152 C40.2452373,9.30067394 40.9884364,12.8133544 42.0119061,15.2684352 C44.6462431,21.5860842 51.7277237,27.266758 57.7974412,27.9299576 C59.5283015,28.1237071 60.7890027,27.7260289 61.6427262,26.7295042 C64.3560829,23.5641236 62.9254634,15.2359998 62.1435291,12.2936986 C61.9312602,11.4924762 62.4071005,10.6691701 63.2081441,10.4548897 C63.4390058,10.3934695 63.6667687,10.4031311 63.886096,10.447816 C64.4270113,10.5577167 64.8918335,10.9497015 65.0429868,11.521806 C65.3709448,12.7603882 68.1342268,23.7709853 63.9184614,28.6885654 C62.9886447,29.7730797 61.335427,30.9807793 58.5867782,30.9807793 C58.2338576,30.9807793 57.8619999,30.9602484 57.47241,30.9176338 C50.3119096,30.1340093 42.3062935,23.7694325 39.2444923,16.4261015 C38.4740925,14.5786662 38.0898394,12.7917884 38.0483498,11.1061848 C20.8795381,11.1061848 1.28005058,20.69808 0.00333885237,37.9511037 C-0.0376343664,38.5045751 0.302030174,39.015087 0.827795763,39.1896858 C1.35356135,39.3658375 1.93183464,39.1605285 2.22914871,38.6924587 C3.28343439,37.0334245 4.59629895,35.2372302 5.90038354,34.1057882 C6.08751753,36.8229397 6.91111366,39.4189762 8.33398615,41.7888279 C11.1835186,46.5347422 12.7050367,51.9849179 12.7050367,57.5230831 L12.7322374,67.745915 C12.8773652,68.9986445 15.8301915,70 19.4774966,70 C23.1261789,70 26.0790052,68.9986445 26.2243052,67.745915 L26.2515059,61.1113311 C26.2515059,59.3694832 26.9762842,57.7052732 28.2502415,56.5193122 C29.5241987,55.3335237 31.2313014,54.8582077 32.9695643,54.8582077 C34.0477798,54.8582077 36.2541359,54.8597605 36.3830811,54.8582077 C38.0509321,54.8407823 39.6573233,55.6064639 40.8417592,56.7834534 C42.0279167,57.9604429 42.694334,59.5628877 42.694334,61.2345164 L42.7215347,67.7457425 C42.8666626,68.998472 45.8193167,69.9998275 49.4667939,69.9998275 C53.1154763,69.9998275 56.0683025,68.998472 56.2136025,67.7457425 L56.2408032,62.0152079 C56.2408032,45.0040692 68.6797904,37.4129872 70.1577529,36.5130785 C77.4926477,32.0470055 74.2344161,45.5806595 74.2344161,45.5806595 C69.3611854,60.7956039 80.6071288,67.7457425 80.6071288,67.7457425 C81.4636068,68.3561483 82.7745777,67.8339045 83.6691022,66.6422501 C84.4940756,65.5484193 84.6448846,64.3020734 84.111372,63.679763 C78.1705996,58.917631 83.6062651,47.459495 83.6062651,47.459495 Z" id="Shape" fill-rule="nonzero"></path>
                    </g>
                </g>
                <g id="Logo-/-Text" transform="translate(100.000000, 0.000000)">
                    <g id="text">
                        <path d="M20.6991129,26.7590144 L9.52210796,26.7590144 L7.39720209,33.3846154 L0.618752353,33.3846154 L12.1357422,1.22836538 L18.0429805,1.22836538 L29.6237175,33.3846154 L22.8452678,33.3846154 L20.6991129,26.7590144 Z M11.2432817,21.3922776 L18.9779391,21.3922776 L15.0893614,9.35576923 L11.2432817,21.3922776 Z M37.8683523,9.48828125 L38.0595938,12.160607 C39.6886965,10.084575 41.8914936,9.04657452 44.6680511,9.04657452 C47.6287681,9.04657452 49.6615744,10.2612559 50.766531,12.690655 C52.3814675,10.2612559 54.6834258,9.04657452 57.6724751,9.04657452 C60.1657104,9.04657452 62.021443,9.80114931 63.2397284,11.3103215 C64.4580139,12.8194937 65.0671475,15.0905798 65.0671475,18.1236478 L65.0671475,33.3846154 L58.9049205,33.3846154 L58.9049205,18.1457332 C58.9049205,16.7911591 58.6499343,15.8010097 58.1399543,15.1752554 C57.6299744,14.5495011 56.7304399,14.2366286 55.4413239,14.2366286 C53.5997296,14.2366286 52.3247988,15.1494801 51.6164933,16.9752103 L51.6377424,33.3846154 L45.4967644,33.3846154 L45.4967644,18.1678185 C45.4967644,16.7837972 45.2346953,15.7826053 44.7105492,15.1642127 C44.1864032,14.5458202 43.2939516,14.2366286 42.0331678,14.2366286 C40.2907363,14.2366286 39.0299714,14.9875225 38.2508354,16.4893329 L38.2508354,33.3846154 L32.1098574,33.3846154 L32.1098574,9.48828125 L37.8683523,9.48828125 Z M75.4366882,9.48828125 L75.6279297,12.2489483 C77.2711984,10.1140218 79.4739955,9.04657452 82.236387,9.04657452 C84.6729579,9.04657452 86.4861928,9.79010675 87.676146,11.2771935 C88.8660992,12.7642803 89.4752328,14.9875153 89.503565,17.9469651 L89.503565,33.3846154 L83.3625871,33.3846154 L83.3625871,18.1015625 C83.3625871,16.7469884 83.0792691,15.7642008 82.5126247,15.1531701 C81.9459803,14.5421394 81.0039481,14.2366286 79.6864999,14.2366286 C77.9582345,14.2366286 76.6620549,15.0022459 75.7979222,16.5335036 L75.7979222,33.3846154 L69.6569442,33.3846154 L69.6569442,9.48828125 L75.4366882,9.48828125 Z M104.73914,33.8263221 C101.367606,33.8263221 98.6229633,32.7515132 96.5051299,30.601863 C94.3872965,28.4522128 93.3283956,25.5885095 93.3283956,22.0106671 L93.3283956,21.3922776 C93.3283956,18.9923257 93.7746214,16.8463887 94.6670863,14.954402 C95.5595512,13.0624154 96.8238576,11.6047978 98.4600433,10.5815054 C100.096229,9.55821303 101.962586,9.04657452 104.05917,9.04657452 C107.204047,9.04657452 109.679537,10.0772133 111.485716,12.1385216 C113.291895,14.19983 114.194971,17.122427 114.194971,20.9064002 L114.194971,23.51247 L99.5543698,23.51247 C99.7526954,25.0731749 100.351205,26.3246648 101.349915,27.2669772 C102.348626,28.2092896 103.612932,28.6804387 105.142872,28.6804387 C107.508613,28.6804387 109.357262,27.7896724 110.688877,26.008113 L113.706243,29.5196815 C112.785446,30.8742556 111.538847,31.9306603 109.966409,32.6889273 C108.39397,33.4471943 106.651565,33.8263221 104.73914,33.8263221 Z M104.037921,14.2145433 C102.819636,14.2145433 101.831564,14.6415222 101.073678,15.4954928 C100.315791,16.3494634 99.8306086,17.5715065 99.618117,19.1616587 L108.160239,19.1616587 L108.160239,18.6536959 C108.131906,17.2402273 107.763593,16.1470141 107.055288,15.3740234 C106.346982,14.6010328 105.341203,14.2145433 104.037921,14.2145433 Z M130.131765,26.7810998 C130.131765,26.0007473 129.759911,25.3860449 129.01619,24.9369742 C128.272469,24.4879034 127.078992,24.0866905 125.435723,23.7333233 C119.967605,22.5407092 117.233587,20.1260699 117.233587,16.4893329 C117.233587,14.36913 118.079999,12.5986399 119.772849,11.1778095 C121.465699,9.75697907 123.679121,9.04657452 126.41318,9.04657452 C129.331399,9.04657452 131.66523,9.76065993 133.414745,11.1888522 C135.16426,12.6170444 136.039004,14.4721941 136.039004,16.754357 L129.898026,16.754357 C129.898026,15.8414918 129.614708,15.086917 129.048063,14.49061 C128.481419,13.8943029 127.59605,13.5961538 126.391931,13.5961538 C125.357805,13.5961538 124.557432,13.8390901 123.990787,14.32497 C123.424143,14.8108498 123.140825,15.429233 123.140825,16.1801382 C123.140825,16.8868725 123.463099,17.4574047 124.107657,17.8917518 C124.752215,18.3260989 125.839448,18.7015459 127.369388,19.018104 C128.899328,19.334662 130.188424,19.6917047 131.236716,20.0892428 C134.480756,21.3260278 136.102751,23.468284 136.102751,26.5160757 C136.102751,28.6951732 135.203216,30.4583016 133.40412,31.8055138 C131.605024,33.1527261 129.281817,33.8263221 126.434429,33.8263221 C124.507838,33.8263221 122.797306,33.4692794 121.302781,32.7551833 C119.808257,32.0410872 118.636029,31.0619804 117.786062,29.8178335 C116.936096,28.5736867 116.511119,27.2301755 116.511119,25.7872596 L122.333361,25.7872596 C122.390025,26.9209792 122.793753,27.7896604 123.544557,28.3933293 C124.295361,28.9969982 125.30114,29.2988281 126.561923,29.2988281 C127.737711,29.2988281 128.626621,29.0669344 129.22868,28.60314 C129.83074,28.1393456 130.131765,27.532005 130.131765,26.7810998 Z M146.536039,33.3846154 L140.373812,33.3846154 L140.373812,9.48828125 L146.536039,9.48828125 L146.536039,33.3846154 Z M140.012578,3.30438702 C140.012578,2.34735098 140.320686,1.55964852 140.936912,0.94125601 C141.553137,0.322863495 142.392467,0.013671875 143.454925,0.013671875 C144.503217,0.013671875 145.339005,0.322863495 145.962314,0.94125601 C146.585623,1.55964852 146.897273,2.34735098 146.897273,3.30438702 C146.897273,4.27614669 146.582081,5.07121085 145.95169,5.68960337 C145.321298,6.30799588 144.489051,6.6171875 143.454925,6.6171875 C142.420799,6.6171875 141.588553,6.30799588 140.958161,5.68960337 C140.327769,5.07121085 140.012578,4.27614669 140.012578,3.30438702 Z M164.916474,33.3846154 C164.633152,32.8103938 164.427747,32.0963084 164.300252,31.2423377 C162.81281,32.9650026 160.879165,33.8263221 158.499259,33.8263221 C156.246847,33.8263221 154.38049,33.1490452 152.900132,31.7944712 C151.419773,30.4398971 150.679605,28.7319815 150.679605,26.6706731 C150.679605,24.1382085 151.582681,22.1947183 153.38886,20.8401442 C155.195039,19.4855702 157.805106,18.8009316 161.219138,18.7862079 L164.045263,18.7862079 L164.045263,17.4169171 C164.045263,16.3126447 163.77257,15.4292401 163.227174,14.7666767 C162.681779,14.1041133 161.821201,13.7728365 160.645414,13.7728365 C159.611288,13.7728365 158.80029,14.0304962 158.212396,14.5458233 C157.624503,15.0611504 157.330561,15.7678741 157.330561,16.6660156 L151.189583,16.6660156 C151.189583,15.2819943 151.600394,14.0010576 152.422028,12.8231671 C153.243662,11.6452766 154.405266,10.7213826 155.906874,10.0514573 C157.408481,9.38153211 159.094223,9.04657452 160.96415,9.04657452 C163.797372,9.04657452 166.046208,9.78642589 167.710726,11.2661508 C169.375244,12.7458758 170.20749,14.8255575 170.20749,17.5052584 L170.20749,27.8632813 C170.221656,30.1307205 170.526223,31.8459978 171.1212,33.0091647 L171.1212,33.3846154 L164.916474,33.3846154 Z M159.837949,28.9454627 C160.74458,28.9454627 161.580368,28.7356541 162.345338,28.3160306 C163.110308,27.8964072 163.676944,27.3332367 164.045263,26.6265024 L164.045263,22.5186298 L161.750365,22.5186298 C158.676319,22.5186298 157.040158,23.6228856 156.841832,25.8314303 L156.820583,26.206881 C156.820583,27.0019571 157.089735,27.6571489 157.628047,28.172476 C158.16636,28.6878031 158.902986,28.9454627 159.837949,28.9454627 Z" id="Amnesia"></path>
                        <path d="M1.64629612,58.757512 C1.64629612,57.6637566 1.8503525,56.6786903 2.25847139,55.8022837 C2.66659027,54.925877 3.24334467,54.2440429 3.98875188,53.7567608 C4.7341591,53.2694787 5.5790537,53.0258413 6.52346103,53.0258413 C7.98054663,53.0258413 9.16103809,53.5569358 10.0649708,54.6191406 C10.9689036,55.6813455 11.4208631,57.0888334 11.4208631,58.8416466 L11.4208631,59.1045673 C11.4208631,60.205334 11.2168068,61.1956587 10.8086879,62.0755709 C10.400569,62.9554832 9.82550101,63.6338117 9.08346668,64.1105769 C8.34143235,64.5873421 7.49485133,64.8257212 6.54369823,64.8257212 C5.0933584,64.8257212 3.91455336,64.2946267 3.00724774,63.2324219 C2.09994213,62.170217 1.64629612,60.7627291 1.64629612,59.0099159 L1.64629612,58.757512 Z M2.86052805,59.1045673 C2.86052805,60.4647504 3.19949774,61.5812757 3.87744729,62.4541767 C4.55539684,63.3270777 5.44413826,63.7635216 6.54369823,63.7635216 C7.63651243,63.7635216 8.52188102,63.3270777 9.19983057,62.4541767 C9.87778012,61.5812757 10.2167498,60.4296947 10.2167498,58.999399 L10.2167498,58.757512 C10.2167498,57.8881166 10.0615995,57.0923514 9.75129424,56.3701923 C9.44098897,55.6480332 9.00589355,55.0888942 8.44599492,54.6927584 C7.88609628,54.2966226 7.24525806,54.0985577 6.52346103,54.0985577 C5.44413837,54.0985577 4.56382902,54.5385072 3.88250659,55.4184195 C3.20118416,56.2983317 2.86052805,57.4499128 2.86052805,58.8731971 L2.86052805,59.1045673 Z M20.264519,53.2361779 L20.264519,65.9720553 C20.264519,67.0237432 20.0216751,67.8265197 19.5359799,68.3804087 C19.0502847,68.9342976 18.3352441,69.211238 17.3908368,69.211238 C17.0265654,69.211238 16.6724179,69.1446321 16.3283838,69.0114183 L16.348621,67.9702524 C16.6454348,68.0613987 16.9489897,68.1069712 17.259295,68.1069712 C18.4600415,68.1069712 19.0604057,67.3883285 19.0604057,65.9510216 L19.0604057,53.2361779 L20.264519,53.2361779 Z M19.6675216,49.0925481 C19.9306065,49.0925481 20.1363493,49.1749291 20.2847562,49.3396935 C20.4331631,49.504458 20.5073654,49.7060285 20.5073654,49.9444111 C20.5073654,50.1827937 20.4331631,50.3826114 20.2847562,50.5438702 C20.1363493,50.705129 19.9306065,50.7857572 19.6675216,50.7857572 C19.4111825,50.7857572 19.210499,50.705129 19.065465,50.5438702 C18.920431,50.3826114 18.8479151,50.1827937 18.8479151,49.9444111 C18.8479151,49.7060285 18.920431,49.504458 19.065465,49.3396935 C19.210499,49.1749291 19.4111825,49.0925481 19.6675216,49.0925481 Z M23.016778,58.757512 C23.016778,57.6637566 23.2208344,56.6786903 23.6289533,55.8022837 C24.0370722,54.925877 24.6138266,54.2440429 25.3592338,53.7567608 C26.104641,53.2694787 26.9495356,53.0258413 27.893943,53.0258413 C29.3510286,53.0258413 30.53152,53.5569358 31.4354527,54.6191406 C32.3393855,55.6813455 32.7913451,57.0888334 32.7913451,58.8416466 L32.7913451,59.1045673 C32.7913451,60.205334 32.5872887,61.1956587 32.1791698,62.0755709 C31.7710509,62.9554832 31.1959829,63.6338117 30.4539486,64.1105769 C29.7119143,64.5873421 28.8653333,64.8257212 27.9141802,64.8257212 C26.4638403,64.8257212 25.2850353,64.2946267 24.3777297,63.2324219 C23.4704241,62.170217 23.016778,60.7627291 23.016778,59.0099159 L23.016778,58.757512 Z M24.23101,59.1045673 C24.23101,60.4647504 24.5699797,61.5812757 25.2479292,62.4541767 C25.9258788,63.3270777 26.8146202,63.7635216 27.9141802,63.7635216 C29.0069944,63.7635216 29.892363,63.3270777 30.5703125,62.4541767 C31.248262,61.5812757 31.5872317,60.4296947 31.5872317,58.999399 L31.5872317,58.757512 C31.5872317,57.8881166 31.4320814,57.0923514 31.1217762,56.3701923 C30.8114709,55.6480332 30.3763755,55.0888942 29.8164768,54.6927584 C29.2565782,54.2966226 28.61574,54.0985577 27.893943,54.0985577 C26.8146203,54.0985577 25.9343109,54.5385072 25.2529885,55.4184195 C24.5716661,56.2983317 24.23101,57.4499128 24.23101,58.8731971 L24.23101,59.1045673 Z M34.8049463,58.820613 C34.8049463,57.0397547 35.18439,55.6287612 35.9432888,54.5875901 C36.7021875,53.5464191 37.7325879,53.0258413 39.0345209,53.0258413 C40.5253353,53.0258413 41.6586071,53.6428224 42.4343703,54.8768029 L42.4950819,53.2361779 L43.628365,53.2361779 L43.628365,64.3840144 C43.628365,65.8493663 43.2337436,67.0097113 42.4444889,67.8650841 C41.6552342,68.720457 40.5860462,69.148137 39.2368929,69.148137 C38.4746213,69.148137 37.7477758,68.9711055 37.0563347,68.6170373 C36.3648936,68.262969 35.8201811,67.7914693 35.4221809,67.202524 L36.1001271,66.4453125 C36.9568394,67.539068 37.9754349,68.0859375 39.1559441,68.0859375 C40.1678091,68.0859375 40.9570519,67.7756942 41.5236963,67.1551983 C42.0903407,66.5347024 42.3837772,65.674084 42.4040145,64.5733173 L42.4040145,63.1430288 C41.6282513,64.2648293 40.4983524,64.8257212 39.0142837,64.8257212 C37.7460796,64.8257212 36.7274841,64.2998851 35.9584667,63.2481971 C35.1894493,62.1965092 34.8049463,60.7767517 34.8049463,58.9888822 L34.8049463,58.820613 Z M36.0292969,59.0414663 C36.0292969,60.4927957 36.309242,61.6373656 36.8691406,62.4752103 C37.4290393,63.3130551 38.2182821,63.7319712 39.2368929,63.7319712 C40.7277073,63.7319712 41.783404,63.0378675 42.4040145,61.6496394 L42.4040145,56.3596755 C42.1206923,55.6305052 41.7125795,55.0748717 41.179664,54.6927584 C40.6467484,54.3106451 40.0059102,54.1195913 39.2571301,54.1195913 C38.2385193,54.1195913 37.4459036,54.5350019 36.8792592,55.3658353 C36.3126148,56.1966688 36.0292969,57.4218669 36.0292969,59.0414663 Z M46.1175405,58.757512 C46.1175405,57.6637566 46.3215969,56.6786903 46.7297157,55.8022837 C47.1378346,54.925877 47.714589,54.2440429 48.4599962,53.7567608 C49.2054035,53.2694787 50.0502981,53.0258413 50.9947054,53.0258413 C52.451791,53.0258413 53.6322824,53.5569358 54.5362152,54.6191406 C55.4401479,55.6813455 55.8921075,57.0888334 55.8921075,58.8416466 L55.8921075,59.1045673 C55.8921075,60.205334 55.6880511,61.1956587 55.2799322,62.0755709 C54.8718133,62.9554832 54.2967454,63.6338117 53.554711,64.1105769 C52.8126767,64.5873421 51.9660957,64.8257212 51.0149426,64.8257212 C49.5646028,64.8257212 48.3857977,64.2946267 47.4784921,63.2324219 C46.5711865,62.170217 46.1175405,60.7627291 46.1175405,59.0099159 L46.1175405,58.757512 Z M47.3317724,59.1045673 C47.3317724,60.4647504 47.6707421,61.5812757 48.3486916,62.4541767 C49.0266412,63.3270777 49.9153826,63.7635216 51.0149426,63.7635216 C52.1077568,63.7635216 52.9931254,63.3270777 53.6710749,62.4541767 C54.3490245,61.5812757 54.6879942,60.4296947 54.6879942,58.999399 L54.6879942,58.757512 C54.6879942,57.8881166 54.5328439,57.0923514 54.2225386,56.3701923 C53.9122333,55.6480332 53.4771379,55.0888942 52.9172393,54.6927584 C52.3573406,54.2966226 51.7165024,54.0985577 50.9947054,54.0985577 C49.9153827,54.0985577 49.0350734,54.5385072 48.3537509,55.4184195 C47.6724285,56.2983317 47.3317724,57.4499128 47.3317724,58.8731971 L47.3317724,59.1045673 Z M62.9447713,58.820613 C62.9447713,57.0537772 63.324215,55.6462893 64.0831137,54.598107 C64.8420125,53.5499246 65.8724129,53.0258413 67.1743458,53.0258413 C68.6516687,53.0258413 69.7781949,53.6323056 70.553958,54.8452524 L70.553958,48.4615385 L71.7580713,48.4615385 L71.7580713,64.6153846 L70.6247882,64.6153846 L70.5741952,63.1009615 C69.7984321,64.250807 68.6584146,64.8257212 67.1541086,64.8257212 C65.8926503,64.8257212 64.8757412,64.2981323 64.1033509,63.2429387 C63.3309606,62.1877451 62.9447713,60.7627293 62.9447713,58.9678486 L62.9447713,58.820613 Z M64.1691218,59.0414663 C64.1691218,60.4927957 64.4490669,61.6373656 65.0089655,62.4752103 C65.5688642,63.3130551 66.358107,63.7319712 67.3767178,63.7319712 C68.8675322,63.7319712 69.9266017,63.0483842 70.553958,61.6811899 L70.553958,56.3386418 C69.9266017,54.8592674 68.8742779,54.1195913 67.396955,54.1195913 C66.3783442,54.1195913 65.5857285,54.5350019 65.0190841,55.3658353 C64.4524397,56.1966688 64.1691218,57.4218669 64.1691218,59.0414663 Z M81.8564335,64.6153846 C81.7350097,64.2578107 81.6574346,63.7284691 81.6237058,63.0273437 C81.1987225,63.6022665 80.6573828,64.0457216 79.9996706,64.3577224 C79.3419583,64.6697231 78.6454683,64.8257212 77.9101798,64.8257212 C76.8578402,64.8257212 76.0061999,64.5207362 75.3552334,63.9107572 C74.704267,63.3007782 74.3787886,62.5295519 74.3787886,61.5970553 C74.3787886,60.4892773 74.8223161,59.6128838 75.7093844,58.9678486 C76.5964527,58.3228133 77.8325959,58.0003005 79.4178511,58.0003005 L81.6135872,58.0003005 L81.6135872,56.7067308 C81.6135872,55.8934254 81.3724296,55.2536582 80.8901073,54.7874099 C80.407785,54.3211615 79.7045494,54.0880409 78.7803793,54.0880409 C77.9371585,54.0880409 77.2389821,54.3123976 76.6858293,54.7611178 C76.1326764,55.209838 75.8561041,55.7496964 75.8561041,56.3807091 L74.6418722,56.3701923 C74.6418722,55.4657407 75.0466121,54.6822449 75.8561041,54.0196815 C76.6655961,53.3571181 77.6605818,53.0258413 78.8410909,53.0258413 C80.0620747,53.0258413 81.0250184,53.3430958 81.7299511,53.9776142 C82.4348837,54.6121326 82.7974632,55.49729 82.8177005,56.633113 L82.8177005,62.0177284 C82.8177005,63.1184951 82.929004,63.942305 83.1516143,64.4891827 L83.1516143,64.6153846 L81.8564335,64.6153846 Z M78.0518402,63.7109375 C78.8613322,63.7109375 79.5848048,63.5076142 80.2222797,63.1009615 C80.8597547,62.6943089 81.3235192,62.1509449 81.6135872,61.4708534 L81.6135872,58.9678486 L79.4482069,58.9678486 C78.2407147,58.9818711 77.2963215,59.2114862 76.6149991,59.6567007 C75.9336766,60.1019153 75.5930205,60.7136379 75.5930205,61.491887 C75.5930205,62.129911 75.8206867,62.6592527 76.276026,63.0799279 C76.7313652,63.5006031 77.3232974,63.7109375 78.0518402,63.7109375 Z M92.1875235,53.2361779 L92.2279979,55.0871394 C92.6327439,54.4000366 93.1386688,53.8847173 93.7457878,53.5411659 C94.3529068,53.1976145 95.0274734,53.0258413 95.7695077,53.0258413 C97.496424,53.0258413 98.5925946,53.7620119 99.0580525,55.234375 C99.449307,54.5262384 99.9720961,53.9811217 100.626435,53.5990084 C101.280775,53.2168951 102.002561,53.0258413 102.791816,53.0258413 C105.139342,53.0258413 106.336698,54.3579594 106.383918,57.0222356 L106.383918,64.6153846 L105.169687,64.6153846 L105.169687,57.116887 C105.162941,56.1002553 104.952139,55.3465569 104.537274,54.8557692 C104.122409,54.3649815 103.446156,54.1195913 102.508495,54.1195913 C101.638291,54.1336139 100.903013,54.4263293 100.30264,54.9977464 C99.702267,55.5691635 99.3683566,56.2650199 99.3008989,57.0853365 L99.3008989,64.6153846 L98.086667,64.6153846 L98.086667,57.0222356 C98.0799212,56.0476714 97.8590007,55.3202648 97.4238987,54.839994 C96.9887968,54.3597232 96.3192895,54.1195913 95.4153567,54.1195913 C94.6530851,54.1195913 93.9987556,54.3457009 93.4523485,54.7979267 C92.9059414,55.2501525 92.5012014,55.9214699 92.2381165,56.811899 L92.2381165,64.6153846 L91.0238846,64.6153846 L91.0238846,53.2361779 L92.1875235,53.2361779 Z M113.689547,64.8257212 C112.758631,64.8257212 111.91711,64.5873421 111.164957,64.1105769 C110.412804,63.6338117 109.827617,62.9695055 109.40938,62.1176382 C108.991142,61.265771 108.782027,60.3105021 108.782027,59.2518029 L108.782027,58.7995793 C108.782027,57.7058239 108.986083,56.7207576 109.394202,55.844351 C109.802321,54.9679443 110.370643,54.2790991 111.099186,53.7777945 C111.827729,53.2764899 112.616971,53.0258413 113.466938,53.0258413 C114.795854,53.0258413 115.849864,53.497341 116.629,54.4403546 C117.408136,55.3833681 117.797699,56.6716665 117.797699,58.3052885 L117.797699,59.0099159 L109.98614,59.0099159 L109.98614,59.2518029 C109.98614,60.5418734 110.341974,61.6163318 111.053652,62.4752103 C111.76533,63.3340888 112.660818,63.7635216 113.74014,63.7635216 C114.387734,63.7635216 114.959429,63.6408265 115.455243,63.3954327 C115.951057,63.1500388 116.40133,62.7574146 116.806076,62.2175481 L117.564971,62.8170072 C116.67453,64.1561565 115.382735,64.8257212 113.689547,64.8257212 Z M113.466938,54.0985577 C112.55626,54.0985577 111.78894,54.4456095 111.164957,55.1397236 C110.540973,55.8338376 110.16153,56.7663203 110.026614,57.9371995 L116.593585,57.9371995 L116.593585,57.8004808 C116.559856,56.7067253 116.259674,55.8163095 115.69303,55.1292067 C115.126386,54.4421039 114.384362,54.0985577 113.466938,54.0985577 Z M121.25826,53.2361779 L121.298734,55.0871394 C121.70348,54.4000366 122.209405,53.8847173 122.816524,53.5411659 C123.423643,53.1976145 124.098209,53.0258413 124.840244,53.0258413 C126.56716,53.0258413 127.663331,53.7620119 128.128789,55.234375 C128.520043,54.5262384 129.042832,53.9811217 129.697171,53.5990084 C130.351511,53.2168951 131.073297,53.0258413 131.862552,53.0258413 C134.210079,53.0258413 135.407434,54.3579594 135.454655,57.0222356 L135.454655,64.6153846 L134.240423,64.6153846 L134.240423,57.116887 C134.233677,56.1002553 134.022875,55.3465569 133.60801,54.8557692 C133.193146,54.3649815 132.516893,54.1195913 131.579231,54.1195913 C130.709027,54.1336139 129.97375,54.4263293 129.373376,54.9977464 C128.773003,55.5691635 128.439093,56.2650199 128.371635,57.0853365 L128.371635,64.6153846 L127.157403,64.6153846 L127.157403,57.0222356 C127.150657,56.0476714 126.929737,55.3202648 126.494635,54.839994 C126.059533,54.3597232 125.390026,54.1195913 124.486093,54.1195913 C123.723821,54.1195913 123.069492,54.3457009 122.523085,54.7979267 C121.976677,55.2501525 121.571937,55.9214699 121.308853,56.811899 L121.308853,64.6153846 L120.094621,64.6153846 L120.094621,53.2361779 L121.25826,53.2361779 Z M137.852763,58.757512 C137.852763,57.6637566 138.056819,56.6786903 138.464938,55.8022837 C138.873057,54.925877 139.449811,54.2440429 140.195218,53.7567608 C140.940626,53.2694787 141.78552,53.0258413 142.729928,53.0258413 C144.187013,53.0258413 145.367505,53.5569358 146.271437,54.6191406 C147.17537,55.6813455 147.62733,57.0888334 147.62733,58.8416466 L147.62733,59.1045673 C147.62733,60.205334 147.423273,61.1956587 147.015154,62.0755709 C146.607035,62.9554832 146.031968,63.6338117 145.289933,64.1105769 C144.547899,64.5873421 143.701318,64.8257212 142.750165,64.8257212 C141.299825,64.8257212 140.12102,64.2946267 139.213714,63.2324219 C138.306409,62.170217 137.852763,60.7627291 137.852763,59.0099159 L137.852763,58.757512 Z M139.066995,59.1045673 C139.066995,60.4647504 139.405964,61.5812757 140.083914,62.4541767 C140.761863,63.3270777 141.650605,63.7635216 142.750165,63.7635216 C143.842979,63.7635216 144.728348,63.3270777 145.406297,62.4541767 C146.084247,61.5812757 146.423216,60.4296947 146.423216,58.999399 L146.423216,58.757512 C146.423216,57.8881166 146.268066,57.0923514 145.957761,56.3701923 C145.647455,55.6480332 145.21236,55.0888942 144.652461,54.6927584 C144.092563,54.2966226 143.451725,54.0985577 142.729928,54.0985577 C141.650605,54.0985577 140.770296,54.5385072 140.088973,55.4184195 C139.407651,56.2983317 139.066995,57.4499128 139.066995,58.8731971 L139.066995,59.1045673 Z M143.934041,48.5877404 L145.401238,48.5877404 L143.063841,51.5219351 L142.001388,51.5219351 L143.934041,48.5877404 Z M155.185923,54.3088942 C154.929584,54.2598155 154.656385,54.2352764 154.366317,54.2352764 C153.610791,54.2352764 152.971639,54.4543748 152.448842,54.8925781 C151.926045,55.3307814 151.553347,55.9670431 151.330737,56.8013822 L151.330737,64.6153846 L150.126624,64.6153846 L150.126624,53.2361779 L151.3105,53.2361779 L151.330737,55.0450721 C151.971585,53.6989115 153.000299,53.0258413 154.41691,53.0258413 C154.754198,53.0258413 155.020652,53.0714138 155.216279,53.1625601 L155.185923,54.3088942 Z M158.454231,64.6153846 L157.239999,64.6153846 L157.239999,53.2361779 L158.454231,53.2361779 L158.454231,64.6153846 Z M157.027508,49.9444111 C157.027508,49.7060285 157.101711,49.504458 157.250118,49.3396935 C157.398525,49.1749291 157.600894,49.0925481 157.857234,49.0925481 C158.113573,49.0925481 158.317629,49.1749291 158.469409,49.3396935 C158.621189,49.504458 158.697077,49.7060285 158.697077,49.9444111 C158.697077,50.1827937 158.621189,50.3826114 158.469409,50.5438702 C158.317629,50.705129 158.113573,50.7857572 157.857234,50.7857572 C157.600894,50.7857572 157.398525,50.705129 157.250118,50.5438702 C157.101711,50.3826114 157.027508,50.1827937 157.027508,49.9444111 Z M168.653779,64.6153846 C168.532355,64.2578107 168.45478,63.7284691 168.421051,63.0273437 C167.996068,63.6022665 167.454728,64.0457216 166.797016,64.3577224 C166.139304,64.6697231 165.442814,64.8257212 164.707525,64.8257212 C163.655186,64.8257212 162.803546,64.5207362 162.152579,63.9107572 C161.501613,63.3007782 161.176134,62.5295519 161.176134,61.5970553 C161.176134,60.4892773 161.619662,59.6128838 162.50673,58.9678486 C163.393798,58.3228133 164.629942,58.0003005 166.215197,58.0003005 L168.410933,58.0003005 L168.410933,56.7067308 C168.410933,55.8934254 168.169775,55.2536582 167.687453,54.7874099 C167.205131,54.3211615 166.501895,54.0880409 165.577725,54.0880409 C164.734504,54.0880409 164.036328,54.3123976 163.483175,54.7611178 C162.930022,55.209838 162.65345,55.7496964 162.65345,56.3807091 L161.439218,56.3701923 C161.439218,55.4657407 161.843958,54.6822449 162.65345,54.0196815 C163.462942,53.3571181 164.457927,53.0258413 165.638437,53.0258413 C166.85942,53.0258413 167.822364,53.3430958 168.527297,53.9776142 C169.232229,54.6121326 169.594809,55.49729 169.615046,56.633113 L169.615046,62.0177284 C169.615046,63.1184951 169.72635,63.942305 169.94896,64.4891827 L169.94896,64.6153846 L168.653779,64.6153846 Z M164.849186,63.7109375 C165.658678,63.7109375 166.38215,63.5076142 167.019625,63.1009615 C167.6571,62.6943089 168.120865,62.1509449 168.410933,61.4708534 L168.410933,58.9678486 L166.245553,58.9678486 C165.03806,58.9818711 164.093667,59.2114862 163.412345,59.6567007 C162.731022,60.1019153 162.390366,60.7136379 162.390366,61.491887 C162.390366,62.129911 162.618032,62.6592527 163.073372,63.0799279 C163.528711,63.5006031 164.120643,63.7109375 164.849186,63.7109375 Z" id="o-jogo-da-memória"></path>
                    </g>
                </g>
            </g>
        </g>
    </g>
</svg>