<?xml version="1.0" encoding="UTF-8"?>
<svg width="32px" height="32px" viewBox="0 0 32 32" version="1.1" xmlns="http://www.w3.org/2000/svg" xmlns:xlink="http://www.w3.org/1999/xlink">
    <!-- Generator: Sketch 50.2 (55047) - http://www.bohemiancoding.com/sketch -->
    <title>Icon / Filtro</title>
    <desc>Created with Sketch.</desc>
    <defs></defs>
    <g id="Symbols" stroke="none" stroke-width="1" fill="none" fill-rule="evenodd">
        <g id="Interfaces-/-Busca-/-Resultado" transform="translate(-319.000000, -108.000000)">
            <g id="Icon-/-Filtro" transform="translate(319.000000, 108.000000)">
                <circle id="Oval-4" cx="16" cy="16" r="16"></circle>
                <g id="Group-3" transform="translate(7.000000, 7.000000)">
                    <path d="M0.771428571,3.5 C0.345380336,3.5 0,3.16421356 0,2.75 C0,2.33578644 0.345380336,2 0.771428571,2 L17.2285714,2 C17.6546197,2 18,2.33578644 18,2.75 C18,3.16421356 17.6546197,3.5 17.2285714,3.5 L0.771428571,3.5 Z" id="Line-3" fill="#1B2539" fill-rule="nonzero"></path>
                    <circle id="Oval-2-Copy-5" stroke="#1B2539" stroke-width="1.5" fill="#FFDA42" cx="7.5" cy="2.5" r="1.75"></circle>
                </g>
                <g id="Group-3-Copy" transform="translate(7.000000, 13.000000)">
                    <path d="M0.771428571,3.5 C0.345380336,3.5 0,3.16421356 0,2.75 C0,2.33578644 0.345380336,2 0.771428571,2 L17.2285714,2 C17.6546197,2 18,2.33578644 18,2.75 C18,3.16421356 17.6546197,3.5 17.2285714,3.5 L0.771428571,3.5 Z" id="Line-3" fill="#1B2539" fill-rule="nonzero"></path>
                    <circle id="Oval-2-Copy-5" stroke="#1B2539" stroke-width="1.5" fill="#FFDA42" cx="13.5" cy="2.5" r="1.75"></circle>
                </g>
                <g id="Group-3-Copy-2" transform="translate(7.000000, 19.000000)">
                    <path d="M0.771428571,3.5 C0.345380336,3.5 0,3.16421356 0,2.75 C0,2.33578644 0.345380336,2 0.771428571,2 L17.2285714,2 C17.6546197,2 18,2.33578644 18,2.75 C18,3.16421356 17.6546197,3.5 17.2285714,3.5 L0.771428571,3.5 Z" id="Line-3" fill="#1B2539" fill-rule="nonzero"></path>
                    <circle id="Oval-2-Copy-5" stroke="#1B2539" stroke-width="1.5" fill="#FFDA42" cx="4.5" cy="2.5" r="1.75"></circle>
                </g>
            </g>
        </g>
    </g>
</svg>