<?xml version="1.0" encoding="UTF-8"?>
<svg width="48px" height="48px" viewBox="0 0 48 48" version="1.1" xmlns="http://www.w3.org/2000/svg" xmlns:xlink="http://www.w3.org/1999/xlink">
    <!-- Generator: Sketch 50.2 (55047) - http://www.bohemiancoding.com/sketch -->
    <title>Button / NavBar / Fechar dark</title>
    <desc>Created with Sketch.</desc>
    <defs></defs>
    <g id="Button-/-NavBar-/-Fechar-dark" stroke="none" stroke-width="1" fill="none" fill-rule="evenodd">
        <g id="btnFechar" transform="translate(17.000000, 16.000000)" fill="#1B2539" fill-rule="nonzero">
            <path d="M16.5,6.75 C16.9142136,6.75 17.25,7.08578644 17.25,7.5 C17.25,7.91421356 16.9142136,8.25 16.5,8.25 L-1.5,8.25 C-1.91421356,8.25 -2.25,7.91421356 -2.25,7.5 C-2.25,7.08578644 -1.91421356,6.75 -1.5,6.75 L16.5,6.75 Z" id="Line-3-Copy-3" transform="translate(7.500000, 7.500000) rotate(-45.000000) translate(-7.500000, -7.500000) "></path>
            <path d="M0.605708883,1.66636906 C0.312815665,1.37347584 0.312815665,0.898602102 0.605708883,0.605708883 C0.898602102,0.312815665 1.37347584,0.312815665 1.66636906,0.605708883 L14.3942911,13.3336309 C14.6871843,13.6265242 14.6871843,14.1013979 14.3942911,14.3942911 C14.1013979,14.6871843 13.6265242,14.6871843 13.3336309,14.3942911 L0.605708883,1.66636906 Z" id="Line-3-Copy-4"></path>
        </g>
    </g>
</svg>