<?xml version="1.0" encoding="UTF-8"?>
<svg width="32px" height="32px" viewBox="0 0 32 32" version="1.1" xmlns="http://www.w3.org/2000/svg" xmlns:xlink="http://www.w3.org/1999/xlink">
    <!-- Generator: Sketch 51.2 (57519) - http://www.bohemiancoding.com/sketch -->
    <title>Form / Icon / Tag</title>
    <desc>Created with Sketch.</desc>
    <defs></defs>
    <g id="Form-/-Icon-/-Tag" stroke="none" stroke-width="1" fill="none" fill-rule="evenodd" opacity="0.32">
        <g id="Icon-/-Login">
            <g id="tag-black-shape" transform="translate(9.000000, 9.000000)">
                <path d="M13.2126649,6.37686824 L13.2269959,6.39157641 C13.5694364,6.75279205 13.75,7.19723743 13.75,7.68851493 C13.75,8.18989307 13.5657944,8.63801913 13.2134529,8.99050713 L8.98555045,13.2265427 C8.62444728,13.5692032 8.17969712,13.75 7.68846581,13.75 C7.18691284,13.75 6.73868953,13.5657062 6.38544052,13.2124602 L0.257634496,7.0759615 C-0.0384181992,6.78768618 -0.277294738,6.41368257 -0.465616582,5.95884006 C-0.652690844,5.50701077 -0.75,5.07721574 -0.75,4.66798291 L-0.75,1.09835069 C-0.75,0.600058711 -0.561054343,0.152461654 -0.204144032,-0.204445316 C0.15264037,-0.561029111 0.600181702,-0.75 1.09836085,-0.75 L4.66802608,-0.75 C5.0771786,-0.75 5.50698843,-0.652665987 5.95894294,-0.465617523 C6.41115704,-0.278437292 6.78561654,-0.0416463617 7.0772924,0.250148187 L13.2126649,6.37686824 Z" id="Shape" stroke="#1B2539" stroke-width="1.5" fill-rule="nonzero"></path>
                <path d="M3.70704611,3.70697604 C3.51161582,3.90228886 3.27601587,4 2.99994527,4 C2.72398413,4 2.48827473,3.90228886 2.29295389,3.70697604 C2.09763306,3.51163586 2,3.27604559 2,3.00001368 C2,2.72395441 2.09763306,2.48828205 2.29295389,2.29305132 C2.48830209,2.09771114 2.72398413,2 2.99994527,2 C3.27601587,2 3.51169791,2.09771114 3.70704611,2.29305132 C3.90228485,2.48828205 4,2.72398178 4,3.00001368 C4,3.27604559 3.90239431,3.51163586 3.70704611,3.70697604 Z" id="Path" fill="#1B2539"></path>
            </g>
        </g>
    </g>
</svg>