<?xml version="1.0" encoding="UTF-8"?>
<svg width="32px" height="32px" viewBox="0 0 32 32" version="1.1" xmlns="http://www.w3.org/2000/svg" xmlns:xlink="http://www.w3.org/1999/xlink">
    <!-- Generator: Sketch 51.1 (57501) - http://www.bohemiancoding.com/sketch -->
    <title>Form / Icon / Whatsapp</title>
    <desc>Created with Sketch.</desc>
    <defs></defs>
    <g id="Form-/-Icon-/-Whatsapp" stroke="none" stroke-width="1" fill="none" fill-rule="evenodd" opacity="0.32">
        <g id="Element-/-Icon-/-Whatsapp">
            <g id="if_whatsapp_1220365" transform="translate(9.000000, 9.000000)">
                <path d="M7,14 C10.8659932,14 14,10.8659932 14,7 C14,3.13400675 10.8659932,0 7,0 C3.13400675,0 0,3.13400675 0,7 C0,8.35001018 0.382165812,9.61076076 1.04421419,10.6799685 C1.04421419,10.6799685 0.742285368,11.7233318 0.138427734,13.8100586 C2.36203486,13.3022298 3.47383842,13.0483153 3.47383842,13.0483153 C4.50933547,13.6533132 5.71418122,14 7,14 Z" id="Oval-5" stroke="#1B2539" stroke-width="1.5"></path>
                <path d="M4.00007108,5.5555597 C4.01234057,4.95309939 4.21846787,4.50505117 4.60863742,4.14813141 C4.73378614,4.0316895 4.88838162,3.98106258 5.06260827,4.00637604 C5.13622516,4.01650142 5.20984206,4.02409546 5.28345895,4.01903277 C5.42087716,4.01143873 5.51412522,4.07978507 5.56074926,4.20382102 C5.72516032,4.64427519 5.8846636,5.08472937 6.04416687,5.52771489 C6.09815259,5.67959565 6.00490452,5.7985689 5.92637984,5.90741677 C5.83558567,6.03651541 5.72516032,6.15042597 5.61718888,6.26433654 C5.50676353,6.38077845 5.49204016,6.44659344 5.56811095,6.5883488 C6.01226621,7.42116159 6.63555592,8.06159209 7.48215022,8.45648204 C7.51159697,8.46913877 7.54104373,8.48685819 7.57049049,8.50204626 C7.68336973,8.55520453 7.78397949,8.5425478 7.86986586,8.44129396 C8.02691524,8.25144303 8.19868799,8.07678016 8.34346789,7.87680384 C8.43916985,7.74517386 8.50542506,7.72239174 8.65020495,7.78820674 C9.08209073,7.98058902 9.48698365,8.22359822 9.89923827,8.45901339 C9.97530906,8.50204626 10.0023019,8.56786126 9.99984802,8.65898971 C9.97776295,9.40573673 9.56305445,9.79556399 8.83424719,9.96769551 C8.48088609,10.0512299 8.15451786,9.96010147 7.83060352,9.83859687 C7.15087419,9.58546229 6.49568382,9.28676348 5.94601101,8.785557 C5.50921743,8.38560436 5.12395568,7.94008749 4.79758745,7.44141235 C4.54729,7.05664779 4.28717698,6.67947725 4.14239708,6.23142904 C4.0589646,5.99348253 3.99761719,5.75047333 4.00007108,5.5555597 Z" id="Shape" fill="#1B2539" fill-rule="nonzero"></path>
            </g>
        </g>
    </g>
</svg>