<?xml version="1.0" encoding="UTF-8"?>
<svg width="53px" height="88px" viewBox="0 0 53 88" version="1.1" xmlns="http://www.w3.org/2000/svg" xmlns:xlink="http://www.w3.org/1999/xlink">
    <!-- Generator: Sketch 51.1 (57501) - http://www.bohemiancoding.com/sketch -->
    <title>Group 7</title>
    <desc>Created with Sketch.</desc>
    <defs></defs>
    <g id="Symbols" stroke="none" stroke-width="1" fill="none" fill-rule="evenodd">
        <g id="Elementos-/-Icons-/-Phone-Suggestion" fill-rule="nonzero">
            <g id="Group-7">
                <rect id="Rectangle-10" stroke="#315A95" stroke-width="2" x="1" y="1" width="51" height="86" rx="10"></rect>
                <circle id="Oval-2" fill="#315A95" cx="27" cy="79" r="4"></circle>
                <rect id="Rectangle-10-Copy" stroke="#315A95" stroke-width="2" x="7" y="11" width="39" height="60" rx="3"></rect>
                <g id="Group-5" transform="translate(13.000000, 26.000000)" fill="#FFFFFF">
                    <rect id="Rectangle-9" x="0" y="0" width="20" height="6" rx="3"></rect>
                    <path d="M2.94697064,6.83062358 C1.57755981,6.15492168 2.10495632,4.74110654 2.12814097,4.68104014 C2.1411417,4.64748954 2.12944104,4.61051173 2.0980226,4.586882 C1.13791827,3.8581485 0.615938735,3.93986045 0.346606829,4.13593305 C-0.174289313,4.51581245 -0.065949849,5.66609302 0.392109403,6.21552921 C0.999677116,6.94372157 2.37190476,7 2.78142793,7 C2.84599826,7 2.88695057,6.99873734 2.8969178,6.99837658 C2.94458717,6.99639241 2.98532281,6.96861395 2.99680679,6.93001272 C3.00829077,6.89123111 2.98813963,6.85100647 2.94697064,6.83062358" id="Fill-1" transform="translate(1.500000, 5.500000) scale(-1, 1) translate(-1.500000, -5.500000) "></path>
                </g>
                <g id="Group-5-Copy-2" transform="translate(13.000000, 48.000000)" fill="#FFFFFF">
                    <rect id="Rectangle-9" x="0" y="0" width="14" height="6" rx="3"></rect>
                    <path d="M2.94697064,6.83062358 C1.57755981,6.15492168 2.10495632,4.74110654 2.12814097,4.68104014 C2.1411417,4.64748954 2.12944104,4.61051173 2.0980226,4.586882 C1.13791827,3.8581485 0.615938735,3.93986045 0.346606829,4.13593305 C-0.174289313,4.51581245 -0.065949849,5.66609302 0.392109403,6.21552921 C0.999677116,6.94372157 2.37190476,7 2.78142793,7 C2.84599826,7 2.88695057,6.99873734 2.8969178,6.99837658 C2.94458717,6.99639241 2.98532281,6.96861395 2.99680679,6.93001272 C3.00829077,6.89123111 2.98813963,6.85100647 2.94697064,6.83062358" id="Fill-1" transform="translate(1.500000, 5.500000) scale(-1, 1) translate(-1.500000, -5.500000) "></path>
                </g>
                <g id="Group-5-Copy" transform="translate(30.000000, 40.500000) scale(-1, 1) translate(-30.000000, -40.500000) translate(20.000000, 37.000000)" fill="#FFDA42">
                    <rect id="Rectangle-9" x="0" y="0" width="20" height="6" rx="3"></rect>
                    <path d="M2.94697064,6.83062358 C1.57755981,6.15492168 2.10495632,4.74110654 2.12814097,4.68104014 C2.1411417,4.64748954 2.12944104,4.61051173 2.0980226,4.586882 C1.13791827,3.8581485 0.615938735,3.93986045 0.346606829,4.13593305 C-0.174289313,4.51581245 -0.065949849,5.66609302 0.392109403,6.21552921 C0.999677116,6.94372157 2.37190476,7 2.78142793,7 C2.84599826,7 2.88695057,6.99873734 2.8969178,6.99837658 C2.94458717,6.99639241 2.98532281,6.96861395 2.99680679,6.93001272 C3.00829077,6.89123111 2.98813963,6.85100647 2.94697064,6.83062358" id="Fill-1" transform="translate(1.500000, 5.500000) scale(-1, 1) translate(-1.500000, -5.500000) "></path>
                </g>
                <rect id="Rectangle-10-Copy-2" fill="#315A95" x="20" y="5" width="13" height="2" rx="1"></rect>
            </g>
        </g>
    </g>
</svg>