<?xml version="1.0" encoding="UTF-8"?>
<svg width="32px" height="32px" viewBox="0 0 32 32" version="1.1" xmlns="http://www.w3.org/2000/svg" xmlns:xlink="http://www.w3.org/1999/xlink">
    <!-- Generator: Sketch 51.1 (57501) - http://www.bohemiancoding.com/sketch -->
    <title>Form / Icon / Calendar / Light</title>
    <desc>Created with Sketch.</desc>
    <defs></defs>
    <g id="Form-/-Icon-/-Calendar-/-Light" stroke="none" stroke-width="1" fill="none" fill-rule="evenodd" opacity="0.16">
        <g id="Element-/-Icon-/-Calendar" transform="translate(8.000000, 7.000000)" fill="#FFFFFF" fill-rule="nonzero">
            <path d="M14.222213,1.80001266 L13.3333403,1.80001266 L13.3333403,0 L11.5555532,0 L11.5555532,1.80001266 L4.44444676,1.80001266 L4.44444676,0 L2.66665972,0 L2.66665972,1.80001266 L1.77778704,1.80001266 C0.795581262,1.80001266 0.00891664345,2.60549796 0.00891664345,3.60002531 L0,16.1999873 C0,17.1944725 0.795539595,18 1.77778704,18 L14.222213,18 C15.2044187,18 16,17.1945147 16,16.1999873 L16,3.59998313 C15.9999583,2.60549796 15.2044187,1.80001266 14.222213,1.80001266 Z M14.222213,16.1999873 L1.77778704,16.1999873 L1.77778704,6.29998102 L14.222213,6.29998102 L14.222213,16.1999873 Z" id="Shape"></path>
            <rect id="date" x="9" y="9" width="4" height="1" rx="0.5"></rect>
            <rect id="Rectangle-9-Copy" x="9" y="11" width="4" height="1" rx="0.5"></rect>
            <rect id="Rectangle-9-Copy" x="3" y="9" width="4" height="1" rx="0.5"></rect>
            <rect id="Rectangle-9-Copy" x="3" y="11" width="4" height="1" rx="0.5"></rect>
            <rect id="Rectangle-9-Copy" x="3" y="13" width="4" height="1" rx="0.5"></rect>
            <rect id="Rectangle-9-Copy" x="9" y="13" width="4" height="1" rx="0.5"></rect>
        </g>
    </g>
</svg>