<?xml version="1.0" encoding="UTF-8"?>
<svg width="32px" height="32px" viewBox="0 0 32 32" version="1.1" xmlns="http://www.w3.org/2000/svg" xmlns:xlink="http://www.w3.org/1999/xlink">
    <!-- Generator: Sketch 51.1 (57501) - http://www.bohemiancoding.com/sketch -->
    <title>Form / Icon / Email / Light</title>
    <desc>Created with Sketch.</desc>
    <defs></defs>
    <g id="Form-/-Icon-/-Email-/-Light" stroke="none" stroke-width="1" fill="none" fill-rule="evenodd" opacity="0.16">
        <g id="Element-/-Icon-/-Email" transform="translate(7.000000, 9.000000)" fill="#FFFFFF" fill-rule="nonzero">
            <path d="M15.8270287,0.0444125326 L2.13151958,0.0444125326 C0.956208877,0.0444125326 0,0.962694517 0,2.09138381 L0,11.6373525 C0,12.7660418 0.956208877,13.6843238 2.13151958,13.6843238 L15.8270287,13.6843238 C17.0023394,13.6843238 17.9585013,12.7660418 17.9585013,11.6373525 L17.9585013,2.09138381 C17.9585013,0.962694517 17.0023394,0.0444125326 15.8270287,0.0444125326 Z M16.2321364,12.129309 L1.72640633,12.129309 C1.54342337,12.129309 1.38293995,12.0106389 1.38293995,11.8752932 L1.38293995,3.10156898 L7.94349624,8.64033768 C8.07799568,8.75393047 8.24903198,8.81645131 8.42514561,8.81645131 L9.53314824,8.81650109 C9.70916232,8.81650109 9.88029817,8.75393047 10.0148474,8.64033768 L16.5757023,3.10136987 L16.5757023,11.8753928 C16.5756028,12.0106389 16.4150696,12.129309 16.2321364,12.129309 Z M8.97927415,7.37774739 L1.95663708,1.42881136 L16.0019112,1.42881136 L8.97927415,7.37774739 Z" id="Shape"></path>
        </g>
    </g>
</svg>