<?xml version="1.0" encoding="UTF-8"?>
<svg width="32px" height="32px" viewBox="0 0 32 32" version="1.1" xmlns="http://www.w3.org/2000/svg" xmlns:xlink="http://www.w3.org/1999/xlink">
    <!-- Generator: Sketch 51.2 (57519) - http://www.bohemiancoding.com/sketch -->
    <title>Form / Icon / Invisible / Light</title>
    <desc>Created with Sketch.</desc>
    <defs></defs>
    <g id="Form-/-Icon-/-Invisible-/-Light" stroke="none" stroke-width="1" fill="none" fill-rule="evenodd">
        <g id="Element-/-Icon-/-Invisible" fill="#FFFFFF" fill-rule="nonzero">
            <g id="invisible" transform="translate(8.000000, 11.000000)">
                <path d="M15.8872997,3.98491582 C15.8568081,3.94424242 15.1240404,2.97643098 13.7927003,2.00824242 C12.0234343,0.721400673 10.0204175,0.0412659933 8.00010774,0.0412659933 C5.97985185,0.0412659933 3.97678114,0.721400673 2.20746128,2.00818855 C0.87606734,2.97643098 0.143191919,3.94424242 0.112700337,3.98491582 C-0.0375488215,4.18526599 -0.0375488215,4.46065993 0.112700337,4.6610101 C0.139474747,4.69672727 0.706316498,5.44511785 1.74297643,6.28169697 L0.989090909,7.78936027 C0.849939394,8.06760943 0.962747475,8.40603367 1.24110438,8.54513131 C1.32196633,8.58558923 1.40789226,8.6047138 1.49257912,8.6047138 C1.69923232,8.6047138 1.89818182,8.49061279 1.99687542,8.29317172 L2.66645118,6.95418182 C3.23991919,7.32923906 3.83488215,7.64282828 4.4447138,7.89220202 L3.77783165,9.22596633 C3.63868013,9.50421549 3.75148822,9.84263973 4.02984512,9.98179125 C4.11070707,10.0221953 4.19668687,10.0413199 4.28131987,10.0413199 C4.48797306,10.0413199 4.68697643,9.92721886 4.78567003,9.72977778 L5.52,8.26111785 C6.15030303,8.43706397 6.79159596,8.54663973 7.43665993,8.58693603 L7.43665993,9.90039057 C7.43665993,10.2115017 7.68894276,10.4637845 8.00005387,10.4637845 C8.31116498,10.4637845 8.56344781,10.2115017 8.56344781,9.90039057 L8.56344781,8.58693603 C9.20861953,8.54663973 9.84980471,8.43706397 10.4801077,8.26111785 L11.2144377,9.72977778 C11.3131852,9.92721886 11.5120808,10.0413199 11.7187879,10.0413199 C11.8034209,10.0413199 11.8894545,10.0221953 11.9702626,9.98179125 C12.2486195,9.84263973 12.3614276,9.50421549 12.2222761,9.22596633 L11.5553939,7.89225589 C12.1652795,7.64282828 12.7601886,7.32923906 13.3337104,6.95412795 L14.0032323,8.29317172 C14.1019259,8.49061279 14.3008215,8.6047138 14.5075286,8.6047138 C14.5922155,8.6047138 14.6781953,8.58558923 14.7590572,8.54513131 C15.0373603,8.40603367 15.1501684,8.06760943 15.0110168,7.78936027 L14.2571852,6.2816431 C15.293899,5.44511785 15.8605791,4.69672727 15.8873535,4.6610101 C16.0375488,4.46065993 16.0375488,4.18526599 15.8872997,3.98491582 Z M13.0999057,5.74820202 C11.5099259,6.89594613 9.79415488,7.47787205 8.00010774,7.47787205 C6.20600673,7.47787205 4.49023569,6.89589226 2.90014815,5.74820202 C2.15143434,5.20781145 1.6073266,4.66122559 1.30117172,4.32296296 C1.60748822,3.98448485 2.15154209,3.43795286 2.90014815,2.89767003 C4.49023569,1.74992593 6.20600673,1.16805387 8.00010774,1.16805387 C9.79415488,1.16805387 11.5099259,1.7499798 13.0999057,2.89767003 C13.8486195,3.43806061 14.3927273,3.98464646 14.6988822,4.32296296 C14.3925657,4.66138721 13.8485118,5.20791919 13.0999057,5.74820202 Z" id="Shape"></path>
            </g>
        </g>
    </g>
</svg>