<?xml version="1.0" encoding="UTF-8"?>
<svg width="48px" height="48px" viewBox="0 0 48 48" version="1.1" xmlns="http://www.w3.org/2000/svg" xmlns:xlink="http://www.w3.org/1999/xlink">
    <!-- Generator: Sketch 51.1 (57501) - http://www.bohemiancoding.com/sketch -->
    <title>Button / NavBar / Login</title>
    <desc>Created with Sketch.</desc>
    <defs></defs>
    <g id="Button-/-NavBar-/-Login" stroke="none" stroke-width="1" fill="none" fill-rule="evenodd">
        <g>
            <circle id="Mask" cx="24" cy="24" r="24"></circle>
            <path d="M23.8065383,23.1444814 C21.4181417,23.1444814 19.4819637,21.2083034 19.4819637,18.8199068 C19.4819637,16.4315102 21.4181417,14.4953323 23.8065383,14.4953323 C26.1949349,14.4953323 28.1311129,16.4315102 28.1311129,18.8199068 C28.1311129,21.2083034 26.1949349,23.1444814 23.8065383,23.1444814 Z M23.8065383,21.8075718 C25.4565801,21.8075718 26.7942033,20.4699486 26.7942033,18.8199068 C26.7942033,17.169865 25.4565801,15.8322418 23.8065383,15.8322418 C22.1564965,15.8322418 20.8188733,17.169865 20.8188733,18.8199068 C20.8188733,20.4699486 22.1564965,21.8075718 23.8065383,21.8075718 Z M31.1397464,30.6236858 C31.1397464,30.9928632 30.8030594,31.2921406 30.3877348,31.2921406 C29.9724103,31.2921406 29.6357232,30.9928632 29.6357232,30.6236858 C29.6357232,27.611538 26.8886663,25.1697097 23.5,25.1697097 C20.1113337,25.1697097 17.3642768,27.611538 17.3642768,30.6236858 C17.3642768,30.9928632 17.0275897,31.2921406 16.6122652,31.2921406 C16.1969406,31.2921406 15.8602536,30.9928632 15.8602536,30.6236858 C15.8602536,26.8731832 19.2806846,23.8328001 23.5,23.8328001 C27.7193154,23.8328001 31.1397464,26.8731832 31.1397464,30.6236858 Z" id="iconUsuario" fill="#FFFFFF" fill-rule="nonzero"></path>
        </g>
    </g>
</svg>