<?xml version="1.0" encoding="UTF-8"?>
<svg width="53px" height="88px" viewBox="0 0 53 88" version="1.1" xmlns="http://www.w3.org/2000/svg" xmlns:xlink="http://www.w3.org/1999/xlink">
    <!-- Generator: Sketch 51.1 (57501) - http://www.bohemiancoding.com/sketch -->
    <title>Group 7</title>
    <desc>Created with Sketch.</desc>
    <defs></defs>
    <g id="Symbols" stroke="none" stroke-width="1" fill="none" fill-rule="evenodd">
        <g id="Elementos-/-Icons-/-Phone-Promotion" fill-rule="nonzero">
            <g id="Group-7">
                <rect id="Rectangle-10" stroke="#315A95" stroke-width="2" x="1" y="1" width="51" height="86" rx="10"></rect>
                <circle id="Oval-2" fill="#315A95" cx="27" cy="79" r="4"></circle>
                <rect id="Rectangle-10-Copy" stroke="#315A95" stroke-width="2" x="7" y="11" width="39" height="60" rx="3"></rect>
                <g id="if_icons_notes_1564518" transform="translate(18.000000, 31.000000)" fill="#FFDA42">
                    <path d="M16.9230769,1.53846154 C16.9230769,0.692307692 16.2307692,0 15.3846154,0 L9.76923077,0 C9.38461538,0 9,0.153846154 8.69230769,0.461538462 L0.461538462,8.69230769 C-0.153846154,9.30769231 -0.153846154,10.3076923 0.461538462,10.9230769 L6.07692308,16.5384615 C6.69230769,17.1538462 7.69230769,17.1538462 8.30769231,16.5384615 L16.5384615,8.30769231 C16.8461538,8 17,7.61538462 17,7.23076923 L16.9230769,1.53846154 Z M12.1428571,6.47619048 C11.252381,6.47619048 10.5238095,5.74761905 10.5238095,4.85714286 C10.5238095,3.96666667 11.252381,3.23809524 12.1428571,3.23809524 C13.0333333,3.23809524 13.7619048,3.96666667 13.7619048,4.85714286 C13.7619048,5.74761905 13.0333333,6.47619048 12.1428571,6.47619048 Z" id="notes"></path>
                </g>
                <rect id="Rectangle-10-Copy-2" fill="#315A95" x="20" y="5" width="13" height="2" rx="1"></rect>
            </g>
        </g>
    </g>
</svg>