<?xml version="1.0" encoding="UTF-8"?>
<svg width="32px" height="32px" viewBox="0 0 32 32" version="1.1" xmlns="http://www.w3.org/2000/svg" xmlns:xlink="http://www.w3.org/1999/xlink">
    <!-- Generator: Sketch 51.2 (57519) - http://www.bohemiancoding.com/sketch -->
    <title>Form / Icon / Visible / Light</title>
    <desc>Created with Sketch.</desc>
    <defs></defs>
    <g id="Form-/-Icon-/-Visible-/-Light" stroke="none" stroke-width="1" fill="none" fill-rule="evenodd">
        <g id="Element-/-Icon-/-Visible" fill-rule="nonzero">
            <g id="visible" transform="translate(8.000000, 11.000000)">
                <path d="M15.8872997,3.94483502 C15.8568081,3.90410774 15.1239865,2.93635017 13.7925926,1.96810774 C12.0233266,0.681319865 10.0203098,0.00118518519 8.00005387,0.00118518519 C5.97979798,0.00118518519 3.97672727,0.681319865 2.20746128,1.96805387 C0.876013468,2.93635017 0.143191919,3.90410774 0.112700337,3.94483502 C-0.0375488215,4.14513131 -0.0375488215,4.42057912 0.112700337,4.62087542 C0.143191919,4.66160269 0.876013468,5.62936027 2.20746128,6.59765657 C3.97678114,7.88439057 5.97979798,8.56452525 8.00005387,8.56452525 C10.0203636,8.56452525 12.0233805,7.88439057 13.7925926,6.59760269 C15.1239865,5.6293064 15.8567542,4.66154882 15.8872997,4.62087542 C16.0375488,4.42057912 16.0375488,4.14507744 15.8872997,3.94483502 Z M11.1550168,4.28282828 C11.1550168,6.02246465 9.73974411,7.43779125 8.00010774,7.43779125 C6.26047138,7.43779125 4.84514478,6.02246465 4.84514478,4.28282828 C4.84514478,2.54319192 6.26041751,1.12791919 8.00005387,1.12791919 C9.73969024,1.12791919 11.1550168,2.54319192 11.1550168,4.28282828 Z M1.30111785,4.28277441 C1.78251852,3.75143434 2.85424916,2.70550842 4.4036633,1.96379798 C3.97085522,2.63261953 3.7183569,3.42857912 3.7183569,4.28282828 C3.7183569,5.14014815 3.97257912,5.93874747 4.4082963,6.60907744 C3.89446465,6.36309764 3.39129966,6.0626532 2.90014815,5.70812121 C2.15143434,5.16767677 1.60727273,4.62109091 1.30111785,4.28277441 Z M13.0999057,5.70812121 C12.6087542,6.0626532 12.1055892,6.3629899 11.5918653,6.60907744 C12.0275286,5.93880135 12.2817508,5.14009428 12.2817508,4.28282828 C12.2817508,3.42556229 12.0275286,2.62690909 11.5918653,1.95657912 C12.1055892,2.20261279 12.6087542,2.50300337 13.0999057,2.85753535 C13.8485657,3.3979798 14.3927273,3.94456566 14.6988283,4.28282828 C14.3925118,4.6213064 13.8484579,5.16778451 13.0999057,5.70812121 Z" id="Shape" fill="#1B2539"></path>
                <circle id="Oval" fill="#FFFFFF" cx="8.00005387" cy="4.28282828" r="1"></circle>
            </g>
        </g>
    </g>
</svg>