<?xml version="1.0" encoding="UTF-8"?>
<svg width="56px" height="56px" viewBox="0 0 56 56" version="1.1" xmlns="http://www.w3.org/2000/svg" xmlns:xlink="http://www.w3.org/1999/xlink">
    <!-- Generator: Sketch 51.2 (57519) - http://www.bohemiancoding.com/sketch -->
    <title>Button / Social / Google</title>
    <desc>Created with Sketch.</desc>
    <defs></defs>
    <g id="Button-/-Social-/-Google" stroke="none" stroke-width="1" fill="none" fill-rule="evenodd">
        <g>
            <circle id="Oval-6-Copy" fill="#FFFFFF" cx="28" cy="28" r="28"></circle>
            <g id="google-plus" transform="translate(16.000000, 16.000000)" fill="#F34A38" fill-rule="nonzero">
                <path d="M13.1625608,14.475636 L19.0238621,14.475636 C17.9950193,17.3838825 15.2085392,19.4690126 11.9463207,19.4449477 C7.9880552,19.4157261 4.71511187,16.2498055 4.56144449,12.2951469 C4.39672485,8.05604823 7.79828376,4.55485671 12.0022369,4.55485671 C13.9244301,4.55485671 15.6785469,5.28711601 17.0009706,6.48700301 C17.3141999,6.77127939 17.7910027,6.77308017 18.0990743,6.4831559 L20.2518913,4.45736947 C20.588535,4.14051548 20.589763,3.6054407 20.2541017,3.28752262 C18.1568735,1.30102575 15.3435406,0.0628314218 12.2411295,0.00226000631 C5.62401719,-0.126904445 0.0463905977,5.29742952 0.00029856971,11.9144474 C-0.0462028013,18.5811502 5.34509084,24 12.0022369,24 C18.4042804,24 23.634211,18.9882065 23.9845268,12.6749461 C23.9938599,12.595794 24,9.92074744 24,9.92074744 L13.1625608,9.92074744 C12.7183417,9.92074744 12.3582835,10.2807381 12.3582835,10.7248739 L12.3582835,13.6715096 C12.3582835,14.1156454 12.7184235,14.475636 13.1625608,14.475636 Z" id="Shape"></path>
            </g>
        </g>
    </g>
</svg>