<?xml version="1.0" encoding="UTF-8"?>
<svg width="32px" height="32px" viewBox="0 0 32 32" version="1.1" xmlns="http://www.w3.org/2000/svg" xmlns:xlink="http://www.w3.org/1999/xlink">
    <!-- Generator: Sketch 51.2 (57519) - http://www.bohemiancoding.com/sketch -->
    <title>Form / Icon / Promotion</title>
    <desc>Created with Sketch.</desc>
    <defs></defs>
    <g id="Form-/-Icon-/-Promotion" stroke="none" stroke-width="1" fill="none" fill-rule="evenodd" opacity="0.32">
        <g id="Icon-/-Megaphone" transform="translate(7.000000, 7.000000)" fill="#1B2539" fill-rule="nonzero">
            <path d="M15.9336735,0 C14.8990867,0 14.0397704,0.768230769 13.8904439,1.76695385 L13.2621429,2.39847692 C12.1685969,3.49763077 10.558148,4.15384615 8.95408163,4.15384615 L4.82142857,4.15384615 C3.9234949,4.15384615 3.15789796,4.73266154 2.87357143,5.53846154 L2.75510204,5.53846154 C1.23593878,5.53846154 0,6.78073846 0,8.30769231 C0,9.83464615 1.23593878,11.0769231 2.75510204,11.0769231 L2.87357143,11.0769231 C3.08144388,11.6660308 3.54655102,12.1335231 4.13265306,12.3424615 L4.13265306,15.9230769 C4.13265306,17.0682923 5.05965306,18 6.19902551,18 C7.33835204,18 8.26530612,17.0682923 8.26530612,15.9230769 L8.26530612,12.4615385 L8.95408163,12.4615385 C10.558102,12.4615385 12.168551,13.1177538 13.2621429,14.2169077 L13.8904439,14.8484308 C14.0397704,15.8471077 14.8991327,16.6153846 15.9337194,16.6153846 C17.0730459,16.6153846 18,15.6836769 18,14.5384615 L18,2.07692308 C18,0.931707692 17.0730459,0 15.9336735,0 Z M2.75510204,9.69230769 C1.99552041,9.69230769 1.37755102,9.07116923 1.37755102,8.30769231 C1.37755102,7.54421538 1.99552041,6.92307692 2.75510204,6.92307692 L2.75510204,9.69230769 Z M6.8877551,15.9230769 C6.8877551,16.3048154 6.57877041,16.6153846 6.19897959,16.6153846 C5.81918878,16.6153846 5.51020408,16.3048154 5.51020408,15.9230769 L5.51020408,12.4615385 L6.8877551,12.4615385 L6.8877551,15.9230769 Z M8.26530612,11.0769231 L4.82142857,11.0769231 C4.44163776,11.0769231 4.13265306,10.7663538 4.13265306,10.3846154 L4.13265306,6.23076923 C4.13265306,5.84903077 4.44163776,5.53846154 4.82142857,5.53846154 L8.26530612,5.53846154 L8.26530612,11.0769231 Z M13.8673469,12.8928923 C12.7037296,11.8806462 11.2076633,11.2517077 9.63826531,11.1083077 L9.63831122,5.50703077 C11.2076633,5.36367692 12.7037296,4.73473846 13.8673469,3.72244615 L13.8673469,12.8928923 Z M16.622449,14.5384615 C16.622449,14.9202 16.3134643,15.2307692 15.9337194,15.2307692 L15.9336735,15.2307692 C15.5538827,15.2307692 15.244898,14.9202 15.244898,14.5384615 L15.244898,2.07692308 C15.244898,1.69518462 15.5538827,1.38461538 15.9337194,1.38461538 C16.3134643,1.38461538 16.622449,1.69518462 16.622449,2.07692308 L16.622449,14.5384615 Z" id="Shape"></path>
        </g>
    </g>
</svg>