<?xml version="1.0" encoding="UTF-8"?>
<svg width="32px" height="32px" viewBox="0 0 32 32" version="1.1" xmlns="http://www.w3.org/2000/svg" xmlns:xlink="http://www.w3.org/1999/xlink">
    <!-- Generator: Sketch 51.1 (57501) - http://www.bohemiancoding.com/sketch -->
    <title>Form / Icon / Web</title>
    <desc>Created with Sketch.</desc>
    <defs></defs>
    <g id="Form-/-Icon-/-Web" stroke="none" stroke-width="1" fill="none" fill-rule="evenodd" opacity="0.16">
        <g id="Element-/-Icon-/-Web" transform="translate(7.000000, 7.000000)" fill="#1B2539" fill-rule="nonzero">
            <path d="M13.2031228,5.28894737 C12.0217544,5.4785614 10.7773333,5.58870175 9.5097193,5.61242105 L9.5097193,8.45522807 L13.5189825,8.45522807 C13.4924211,7.30585965 13.3798596,6.24501754 13.2031228,5.28894737 Z" id="Shape"></path>
            <path d="M4.76224561,5.28694737 C4.58529825,6.24350877 4.47259649,7.30505263 4.446,8.45522807 L8.45526316,8.45522807 L8.45526316,5.61221053 C7.1874386,5.58789474 5.94326316,5.47715789 4.76224561,5.28694737 Z" id="Shape"></path>
            <path d="M4.446,9.50968421 C4.4725614,10.6590526 4.58512281,11.7198947 4.76185965,12.6759649 C5.94326316,12.4863509 7.18764912,12.3762105 8.45526316,12.3524912 L8.45526316,9.50968421 L4.446,9.50968421 Z" id="Shape"></path>
            <path d="M9.5097193,9.50968421 L9.5097193,12.3527018 C10.7775088,12.3770175 12.0217544,12.4877544 13.2027719,12.6779649 C13.3797193,11.7214035 13.4924211,10.6598596 13.5190175,9.50968421 L9.5097193,9.50968421 Z" id="Shape"></path>
            <path d="M9.50975439,13.4072281 L9.50975439,17.9649123 C9.9637193,17.9388421 10.4112632,17.8791579 10.8496842,17.7871228 C11.6731579,17.1323158 12.4709123,15.7098246 12.9778246,13.7090877 C11.8698246,13.533614 10.7018246,13.4308772 9.50975439,13.4072281 Z" id="Shape"></path>
            <path d="M7.11540351,0.177789474 C6.29185965,0.832561404 5.49410526,2.25508772 4.98719298,4.25582456 C6.09519298,4.43129825 7.26319298,4.53403509 8.45526316,4.55768421 L8.45526316,0 C8.00129825,0.0260701754 7.55375439,0.0857192982 7.11540351,0.177789474 Z" id="Shape"></path>
            <path d="M15.345193,2.61978947 C14.5758947,1.85052632 13.691614,1.2382807 12.7314035,0.797894737 C13.0678947,1.35326316 13.3695789,2.01063158 13.6297895,2.76084211 C13.7745614,3.1782807 13.9032281,3.6154386 14.0157895,4.06894737 C14.7574737,3.91550877 15.4644561,3.72775439 16.1247719,3.50775439 C15.8861754,3.19778947 15.626386,2.90098246 15.345193,2.61978947 Z" id="Shape"></path>
            <path d="M16.7374386,4.41238596 C15.9620702,4.68585965 15.122807,4.91578947 14.2382456,5.09908772 C14.4340702,6.1574386 14.5473684,7.28694737 14.573614,8.45522807 L17.9649123,8.45522807 C17.8821404,7.01259649 17.4602807,5.63414035 16.7374386,4.41238596 Z" id="Shape"></path>
            <path d="M2.61985965,2.61978947 C2.33968421,2.89992982 2.08073684,3.19557895 1.84284211,3.50431579 C2.50249123,3.72459649 3.20880702,3.91266667 3.94985965,4.06642105 C4.06224561,3.61378947 4.19070175,3.17747368 4.33522807,2.76084211 C4.5954386,2.01066667 4.89712281,1.35326316 5.23364912,0.797894737 C4.2734386,1.23831579 3.38912281,1.85052632 2.61985965,2.61978947 Z" id="Shape"></path>
            <path d="M14.5736491,9.50968421 C14.5474035,10.6789123 14.4339298,11.8092982 14.2377895,12.8684211 C15.1217895,13.0521404 15.9604561,13.2824912 16.7352281,13.5563509 C17.4594386,12.3336491 17.8820702,10.9538246 17.9649474,9.50968421 L14.5736491,9.50968421 Z" id="Shape"></path>
            <path d="M10.8495789,0.177754386 C10.4112281,0.0857192982 9.96368421,0.0260701754 9.5097193,0 L9.5097193,4.55785965 C10.7016491,4.53480702 11.8698947,4.43270175 12.9782807,4.25775439 C12.4713684,2.256 11.6734035,0.832736842 10.8495789,0.177754386 Z" id="Shape"></path>
            <path d="M14.0151579,13.8984912 C13.9027719,14.3511228 13.7742807,14.7874737 13.6297544,15.2041404 C13.3695439,15.9543158 13.0678596,16.6116491 12.7313684,17.1670175 C13.6915789,16.7265965 14.5758596,16.114386 15.3451579,15.3451228 C15.6252982,15.0649825 15.8842456,14.7693333 16.1221053,14.4605965 C15.4624912,14.2403158 14.7561754,14.0522807 14.0151579,13.8984912 Z" id="Shape"></path>
            <path d="M8.45526316,13.4070526 C7.26329825,13.4301053 6.09508772,13.5322105 4.98670175,13.7071579 C5.49357895,15.7089123 6.29157895,17.1321053 7.11536842,17.7871579 C7.55375439,17.879193 8.00129825,17.9388772 8.45529825,17.9649474 L8.45526316,13.4070526 Z" id="Shape"></path>
            <path d="M3.39129825,9.5097193 L3.50877193e-05,9.5097193 C0.0828421053,10.9523509 0.504701754,12.330807 1.22754386,13.5525614 C2.00291228,13.2790526 2.84217544,13.0491579 3.72670175,12.8658596 C3.53087719,11.8075088 3.41757895,10.678 3.39129825,9.5097193 Z" id="Shape"></path>
            <path d="M4.33519298,15.2041404 C4.19038596,14.7867018 4.0617193,14.3495088 3.94919298,13.8959649 C3.20750877,14.0494035 2.50052632,14.2371579 1.84021053,14.4571579 C2.07880702,14.7671228 2.33859649,15.0639298 2.61978947,15.3451228 C3.38908772,16.114386 4.27336842,16.7265965 5.23357895,17.1670175 C4.89712281,16.6116491 4.5954386,15.9543158 4.33519298,15.2041404 Z" id="Shape"></path>
            <path d="M1.22975439,4.4085614 C0.505578947,5.63126316 0.0829473684,7.01108772 3.50877193e-05,8.45522807 L3.39133333,8.45522807 C3.41761404,7.286 3.53108772,6.15561404 3.72719298,5.09649123 C2.84319298,4.91277193 2.00452632,4.68242105 1.22975439,4.4085614 Z" id="Shape"></path>
        </g>
    </g>
</svg>