<?xml version="1.0" encoding="UTF-8"?>
<svg width="32px" height="32px" viewBox="0 0 32 32" version="1.1" xmlns="http://www.w3.org/2000/svg" xmlns:xlink="http://www.w3.org/1999/xlink">
    <!-- Generator: Sketch 51.1 (57501) - http://www.bohemiancoding.com/sketch -->
    <title>Form / Icon / Twitter / Light</title>
    <desc>Created with Sketch.</desc>
    <defs></defs>
    <g id="Form-/-Icon-/-Twitter-/-Light" stroke="none" stroke-width="1" fill="none" fill-rule="evenodd" opacity="0.16">
        <g id="Element-/-Icon-/-Twitter" transform="translate(7.000000, 7.000000)" fill-rule="nonzero">
            <g id="if_Facebook_194929">
                <circle id="Oval" stroke="#FFFFFF" stroke-width="1.5" cx="9" cy="9" r="9"></circle>
                <path d="M9.37001357,7.56766716 L9.38952254,7.90385954 L9.06437271,7.86269313 C7.88082738,7.70488852 6.84685097,7.16972516 5.96894646,6.27092515 L5.53974869,5.82495568 L5.42919777,6.15428695 C5.19508989,6.88842133 5.3446588,7.66372211 5.83238353,8.18516334 C6.09250337,8.47332824 6.03397641,8.51449465 5.58526967,8.34296794 C5.42919777,8.28807936 5.29263484,8.24691295 5.27962881,8.26749619 C5.23410788,8.31552367 5.39017978,8.93988092 5.51373669,9.18687941 C5.68281462,9.52993286 6.02747342,9.8661252 6.40464718,10.0650962 L6.72329402,10.2229008 L6.34612022,10.2297619 C5.98195244,10.2297619 5.96894646,10.2366229 6.00796445,10.3807054 C6.13802439,10.8266749 6.65176108,11.3000886 7.22402477,11.5059207 L7.62721049,11.6500031 L7.2760487,11.8695573 C6.75580902,12.1851665 6.14452734,12.3635543 5.5332457,12.3772764 C5.24061087,12.3841375 5,12.4115817 5,12.432165 C5,12.5007756 5.79336554,12.8849955 6.25507831,13.035939 C7.64021652,13.4819085 9.28547461,13.2897985 10.5210439,12.5282199 C11.3989484,11.9861955 12.276853,10.9090077 12.6865417,9.8661252 C12.9076436,9.31037864 13.1287455,8.29494047 13.1287455,7.80780455 C13.1287455,7.49219541 13.1482544,7.451029 13.5124222,7.07367021 C13.7270211,6.85411599 13.928614,6.6139786 13.967632,6.54536788 C14.0326619,6.41500758 14.026159,6.41500758 13.6945062,6.53164574 C13.1417514,6.73747783 13.0637155,6.71003356 13.3368413,6.40128545 C13.5384342,6.18173122 13.7790451,5.78378927 13.7790451,5.66715107 C13.7790451,5.64656787 13.6815001,5.68087325 13.5709492,5.74262282 C13.4538953,5.81123354 13.1937754,5.91414957 12.9986855,5.97589918 L12.6475237,6.09253734 L12.3288769,5.86612205 C12.153296,5.74262282 11.9061821,5.60540146 11.7761222,5.56423505 C11.4444694,5.46818009 10.9372357,5.48190223 10.6380978,5.59167932 C9.8252233,5.90042743 9.31148657,6.69631142 9.37001357,7.56766716 C9.37001357,7.56766716 9.31148657,6.69631142 9.37001357,7.56766716 Z" id="Oval-1-path" fill="#D8D8D8"></path>
            </g>
        </g>
    </g>
</svg>