<?xml version="1.0" encoding="UTF-8"?>
<svg width="32px" height="32px" viewBox="0 0 32 32" version="1.1" xmlns="http://www.w3.org/2000/svg" xmlns:xlink="http://www.w3.org/1999/xlink">
    <!-- Generator: Sketch 51.1 (57501) - http://www.bohemiancoding.com/sketch -->
    <title>Form / Icon / Search</title>
    <desc>Created with Sketch.</desc>
    <defs></defs>
    <g id="Form-/-Icon-/-Search" stroke="none" stroke-width="1" fill="none" fill-rule="evenodd" opacity="0.16">
        <g id="Oval-2-Copy-2" fill="#1B2539" fill-rule="nonzero">
            <path d="M23.4748571,22.8248571 L19.6011429,18.796 C20.5971429,17.612 21.1428571,16.1222857 21.1428571,14.5714286 C21.1428571,10.948 18.1948571,8 14.5714286,8 C10.948,8 8,10.948 8,14.5714286 C8,18.1948571 10.948,21.1428571 14.5714286,21.1428571 C15.9317143,21.1428571 17.228,20.7325714 18.3362857,19.9537143 L22.2394286,24.0131429 C22.4025714,24.1825714 22.622,24.276 22.8571429,24.276 C23.0797143,24.276 23.2908571,24.1911429 23.4511429,24.0368571 C23.7917143,23.7091429 23.8025714,23.1657143 23.4748571,22.8248571 Z M14.5714286,9.71428571 C17.2497143,9.71428571 19.4285714,11.8931429 19.4285714,14.5714286 C19.4285714,17.2497143 17.2497143,19.4285714 14.5714286,19.4285714 C11.8931429,19.4285714 9.71428571,17.2497143 9.71428571,14.5714286 C9.71428571,11.8931429 11.8931429,9.71428571 14.5714286,9.71428571 Z" id="Shape"></path>
        </g>
    </g>
</svg>