<?xml version="1.0" encoding="UTF-8"?>
<svg width="56px" height="56px" viewBox="0 0 56 56" version="1.1" xmlns="http://www.w3.org/2000/svg" xmlns:xlink="http://www.w3.org/1999/xlink">
    <!-- Generator: Sketch 51.2 (57519) - http://www.bohemiancoding.com/sketch -->
    <title>Button / Social / Facebook</title>
    <desc>Created with Sketch.</desc>
    <defs></defs>
    <g id="Button-/-Social-/-Facebook" stroke="none" stroke-width="1" fill="none" fill-rule="evenodd">
        <g>
            <circle id="Oval-6" fill="#FFFFFF" cx="28" cy="28" r="28"></circle>
            <g id="facebook-logo" transform="translate(21.000000, 15.000000)" fill="#475993" fill-rule="nonzero">
                <path d="M12.5104582,0.00507162698 L9.39234929,0 C5.88926091,0 3.6254113,2.35450282 3.6254113,5.99872039 L3.6254113,8.76453216 L0.49029229,8.76453216 C0.219380785,8.76453216 0,8.98717659 0,9.26180519 L0,13.2691512 C0,13.5437798 0.219630934,13.7661707 0.49029229,13.7661707 L3.6254113,13.7661707 L3.6254113,23.8779806 C3.6254113,24.1526092 3.84479209,24.375 4.11570359,24.375 L8.20614212,24.375 C8.47705363,24.375 8.69643441,24.1523556 8.69643441,23.8779806 L8.69643441,13.7661707 L12.3621197,13.7661707 C12.6330312,13.7661707 12.852412,13.5437798 12.852412,13.2691512 L12.8539129,9.26180519 C12.8539129,9.12994289 12.802132,9.00365937 12.7103273,8.91034144 C12.6185226,8.8170235 12.493448,8.76453216 12.3633705,8.76453216 L8.69643441,8.76453216 L8.69643441,6.41991901 C8.69643441,5.2930035 8.96134234,4.72092397 10.4094556,4.72092397 L12.5099579,4.72016323 C12.7806192,4.72016323 13,4.4975188 13,4.22314378 L13,0.502091071 C13,0.227969633 12.7808694,0.00557878968 12.5104582,0.00507162698 Z" id="Shape"></path>
            </g>
        </g>
    </g>
</svg>