<?xml version="1.0" encoding="UTF-8"?>
<svg width="32px" height="32px" viewBox="0 0 32 32" version="1.1" xmlns="http://www.w3.org/2000/svg" xmlns:xlink="http://www.w3.org/1999/xlink">
    <!-- Generator: Sketch 51.1 (57501) - http://www.bohemiancoding.com/sketch -->
    <title>Form / Icon / Avatar / Light</title>
    <desc>Created with Sketch.</desc>
    <defs></defs>
    <g id="Form-/-Icon-/-Avatar-/-Light" stroke="none" stroke-width="1" fill="none" fill-rule="evenodd" opacity="0.16">
        <g id="Icon-/-Login" fill="#FFFFFF" fill-rule="nonzero">
            <path d="M21.6233737,22 C21.6233737,22.4142136 21.2875873,22.75 20.8733737,22.75 C20.4591602,22.75 20.1233737,22.4142136 20.1233737,22 C20.1233737,19.6508584 18.244397,17.75 15.9309311,17.75 C13.6174653,17.75 11.7384885,19.6508584 11.7384885,22 C11.7384885,22.4142136 11.4027021,22.75 10.9884885,22.75 C10.574275,22.75 10.2384885,22.4142136 10.2384885,22 C10.2384885,18.8262941 12.7851256,16.25 15.9309311,16.25 C19.0767366,16.25 21.6233737,18.8262941 21.6233737,22 Z M16,15.75 C13.9289322,15.75 12.25,14.0710678 12.25,12 C12.25,9.92893219 13.9289322,8.25 16,8.25 C18.0710678,8.25 19.75,9.92893219 19.75,12 C19.75,14.0710678 18.0710678,15.75 16,15.75 Z M16,14.25 C17.2426407,14.25 18.25,13.2426407 18.25,12 C18.25,10.7573593 17.2426407,9.75 16,9.75 C14.7573593,9.75 13.75,10.7573593 13.75,12 C13.75,13.2426407 14.7573593,14.25 16,14.25 Z" id="Combined-Shape"></path>
        </g>
    </g>
</svg>