<?xml version="1.0" encoding="UTF-8"?>
<svg width="32px" height="32px" viewBox="0 0 32 32" version="1.1" xmlns="http://www.w3.org/2000/svg" xmlns:xlink="http://www.w3.org/1999/xlink">
    <!-- Generator: Sketch 51.2 (57519) - http://www.bohemiancoding.com/sketch -->
    <title>Form / Icon / Credential</title>
    <desc>Created with Sketch.</desc>
    <defs></defs>
    <g id="Form-/-Icon-/-Credential" stroke="none" stroke-width="1" fill="none" fill-rule="evenodd" opacity="0.32">
        <g id="Icon-/-Login">
            <path d="M18.4218335,18.1436597 C18.4218335,18.3198857 18.2789741,18.4627451 18.1027481,18.4627451 C17.9265221,18.4627451 17.7836628,18.3198857 17.7836628,18.1436597 C17.7836628,17.1442241 16.9842575,16.3355093 16,16.3355093 C15.0157425,16.3355093 14.2163372,17.1442241 14.2163372,18.1436597 C14.2163372,18.3198857 14.0734779,18.4627451 13.8972519,18.4627451 C13.7210259,18.4627451 13.5781665,18.3198857 13.5781665,18.1436597 C13.5781665,16.7934156 14.661626,15.6973386 16,15.6973386 C17.338374,15.6973386 18.4218335,16.7934156 18.4218335,18.1436597 Z M16.0293852,15.484615 C15.1482553,15.484615 14.4339583,14.7703181 14.4339583,13.8891882 C14.4339583,13.0080583 15.1482553,12.2937614 16.0293852,12.2937614 C16.9105151,12.2937614 17.624812,13.0080583 17.624812,13.8891882 C17.624812,14.7703181 16.9105151,15.484615 16.0293852,15.484615 Z M16.0293852,14.8464443 C16.5580631,14.8464443 16.9866412,14.4178661 16.9866412,13.8891882 C16.9866412,13.3605103 16.5580631,12.9319321 16.0293852,12.9319321 C15.5007072,12.9319321 15.0721291,13.3605103 15.0721291,13.8891882 C15.0721291,14.4178661 15.5007072,14.8464443 16.0293852,14.8464443 Z" id="Combined-Shape" fill="#1B2539" fill-rule="nonzero"></path>
            <rect id="Rectangle-6" stroke="#1B2539" x="12.5" y="20.5" width="7" height="1" rx="0.5"></rect>
            <rect id="Rectangle-3" stroke="#1B2539" stroke-width="1.5" x="9.25" y="7.25" width="13.5" height="16.5" rx="2"></rect>
            <rect id="Rectangle-5" stroke="#1B2539" x="15.5" y="4.5" width="1" height="5" rx="0.5"></rect>
        </g>
    </g>
</svg>