<?xml version="1.0" encoding="UTF-8"?>
<svg width="32px" height="32px" viewBox="0 0 32 32" version="1.1" xmlns="http://www.w3.org/2000/svg" xmlns:xlink="http://www.w3.org/1999/xlink">
    <!-- Generator: Sketch 51.1 (57501) - http://www.bohemiancoding.com/sketch -->
    <title>Form / Icon / Delete / Light</title>
    <desc>Created with Sketch.</desc>
    <defs></defs>
    <g id="Form-/-Icon-/-Delete-/-Light" stroke="none" stroke-width="1" fill="none" fill-rule="evenodd">
        <g id="Element-/-Icon-/-Delete" fill="#FFFFFF">
            <path d="M15.3714606,16 L13.1715729,18.1998878 C12.9980065,18.3734541 12.9980065,18.6548608 13.1715729,18.8284271 C13.3451392,19.0019935 13.6265459,19.0019935 13.8001122,18.8284271 L16,16.6285394 L18.1998878,18.8284271 C18.3734541,19.0019935 18.6548608,19.0019935 18.8284271,18.8284271 C19.0019935,18.6548608 19.0019935,18.3734541 18.8284271,18.1998878 L16.6285394,16 L18.8284271,13.8001122 C19.0019935,13.6265459 19.0019935,13.3451392 18.8284271,13.1715729 C18.6548608,12.9980065 18.3734541,12.9980065 18.1998878,13.1715729 L16,15.3714606 L13.8001122,13.1715729 C13.6265459,12.9980065 13.3451392,12.9980065 13.1715729,13.1715729 C12.9980065,13.3451392 12.9980065,13.6265459 13.1715729,13.8001122 L15.3714606,16 Z M16,24 C11.581722,24 8,20.418278 8,16 C8,11.581722 11.581722,8 16,8 C20.418278,8 24,11.581722 24,16 C24,20.418278 20.418278,24 16,24 Z" id="Combined-Shape"></path>
        </g>
    </g>
</svg>